<svg width="34" height="34" viewBox="0 0 34 34" fill="none" xmlns="http://www.w3.org/2000/svg">
<g id="charity 1" clip-path="url(#clip0_527_923)">
<path id="Vector" d="M24.0333 2.54701C24.1507 2.54701 24.2655 2.51234 24.3631 2.44739C24.4607 2.38243 24.5368 2.29011 24.5818 2.1821C24.6267 2.07408 24.6385 1.95522 24.6155 1.84056C24.5926 1.72589 24.5361 1.62056 24.4531 1.53789C24.3701 1.45521 24.2643 1.39891 24.1491 1.3761C24.034 1.3533 23.9146 1.365 23.8061 1.40974C23.6976 1.45449 23.6049 1.53025 23.5397 1.62746C23.4745 1.72467 23.4397 1.83896 23.4397 1.95588C23.4398 2.11261 23.5024 2.26288 23.6137 2.3737C23.725 2.48453 23.8759 2.54686 24.0333 2.54701ZM24.0333 1.66031C24.092 1.66031 24.1494 1.67765 24.1982 1.71012C24.247 1.7426 24.2851 1.78876 24.3075 1.84277C24.33 1.89678 24.3359 1.95621 24.3244 2.01354C24.313 2.07088 24.2847 2.12354 24.2432 2.16488C24.2017 2.20621 24.1488 2.23436 24.0912 2.24577C24.0336 2.25717 23.9739 2.25132 23.9197 2.22895C23.8655 2.20658 23.8191 2.16869 23.7865 2.12009C23.7539 2.07148 23.7365 2.01434 23.7365 1.95588C23.7365 1.87751 23.7678 1.80236 23.8235 1.74694C23.8791 1.69152 23.9546 1.66037 24.0333 1.66031ZM9.19206 8.2613C9.11378 8.2613 9.03726 8.28441 8.97218 8.32771C8.9071 8.37102 8.85637 8.43257 8.82642 8.50458C8.79646 8.57659 8.78862 8.65582 8.80389 8.73227C8.81917 8.80872 8.85686 8.87893 8.91221 8.93405C8.96756 8.98916 9.03807 9.0267 9.11485 9.0419C9.19162 9.05711 9.27119 9.0493 9.34351 9.01948C9.41583 8.98965 9.47764 8.93914 9.52112 8.87433C9.56461 8.80952 9.58782 8.73333 9.58782 8.65539C9.58772 8.5509 9.54599 8.45072 9.47179 8.37684C9.39759 8.30296 9.29699 8.2614 9.19206 8.2613ZM9.19206 8.85243C9.15292 8.85243 9.11466 8.84087 9.08212 8.81922C9.04958 8.79757 9.02421 8.7668 9.00924 8.73079C8.99426 8.69479 8.99034 8.65517 8.99798 8.61694C9.00561 8.57872 9.02446 8.54361 9.05213 8.51605C9.07981 8.4885 9.11507 8.46973 9.15345 8.46213C9.19184 8.45452 9.23162 8.45843 9.26778 8.47334C9.30394 8.48826 9.33485 8.51351 9.35659 8.54591C9.37833 8.57832 9.38994 8.61641 9.38994 8.65539C9.38989 8.70763 9.36902 8.75772 9.33192 8.79466C9.29482 8.8316 9.24452 8.85238 9.19206 8.85243ZM9.78571 1.95588C9.70743 1.95588 9.63091 1.97899 9.56583 2.0223C9.50075 2.0656 9.45002 2.12715 9.42007 2.19916C9.39011 2.27117 9.38227 2.35041 9.39754 2.42685C9.41282 2.5033 9.45051 2.57352 9.50586 2.62863C9.56121 2.68374 9.63172 2.72128 9.7085 2.73648C9.78527 2.75169 9.86484 2.74389 9.93716 2.71406C10.0095 2.68423 10.0713 2.63372 10.1148 2.56891C10.1583 2.5041 10.1815 2.42791 10.1815 2.34997C10.1814 2.24548 10.1396 2.1453 10.0654 2.07142C9.99124 1.99754 9.89064 1.95598 9.78571 1.95588ZM9.78571 2.54701C9.74657 2.54701 9.70831 2.53546 9.67577 2.5138C9.64323 2.49215 9.61786 2.46138 9.60289 2.42537C9.58791 2.38937 9.58399 2.34975 9.59163 2.31153C9.59926 2.2733 9.61811 2.23819 9.64578 2.21064C9.67346 2.18308 9.70872 2.16431 9.7471 2.15671C9.78549 2.14911 9.82527 2.15301 9.86143 2.16792C9.89759 2.18284 9.9285 2.20809 9.95024 2.2405C9.97198 2.2729 9.98359 2.311 9.98359 2.34997C9.98354 2.40221 9.96267 2.4523 9.92557 2.48924C9.88847 2.52618 9.83817 2.54696 9.78571 2.54701ZM31.7507 10.7598C31.6725 10.7598 31.596 10.7829 31.5309 10.8262C31.4658 10.8695 31.4151 10.9311 31.3851 11.0031C31.3552 11.0751 31.3473 11.1543 31.3626 11.2308C31.3779 11.3072 31.4156 11.3775 31.4709 11.4326C31.5262 11.4877 31.5968 11.5252 31.6735 11.5404C31.7503 11.5556 31.8299 11.5478 31.9022 11.518C31.9745 11.4882 32.0363 11.4377 32.0798 11.3729C32.1233 11.308 32.1465 11.2319 32.1465 11.1539C32.1464 11.0494 32.1047 10.9492 32.0305 10.8754C31.9563 10.8015 31.8557 10.7599 31.7507 10.7598ZM31.7507 11.351C31.7116 11.351 31.6734 11.3394 31.6408 11.3177C31.6083 11.2961 31.5829 11.2653 31.5679 11.2293C31.553 11.1933 31.549 11.1537 31.5567 11.1155C31.5643 11.0772 31.5831 11.0421 31.6108 11.0146C31.6385 10.987 31.6738 10.9683 31.7121 10.9607C31.7505 10.953 31.7903 10.9569 31.8265 10.9719C31.8626 10.9868 31.8935 11.012 31.9153 11.0444C31.937 11.0768 31.9486 11.1149 31.9486 11.1539C31.9486 11.2062 31.9277 11.2562 31.8906 11.2932C31.8535 11.3301 31.8032 11.3509 31.7507 11.351ZM2.26614 3.53223C2.26614 3.45429 2.24293 3.3781 2.19944 3.31329C2.15596 3.24848 2.09415 3.19797 2.02183 3.16814C1.94951 3.13832 1.86994 3.13051 1.79317 3.14572C1.71639 3.16092 1.64588 3.19846 1.59053 3.25357C1.53518 3.30869 1.49748 3.37891 1.48221 3.45535C1.46694 3.5318 1.47478 3.61103 1.50474 3.68305C1.53469 3.75506 1.58542 3.8166 1.6505 3.85991C1.71558 3.90321 1.7921 3.92632 1.87038 3.92632C1.97531 3.92622 2.07591 3.88467 2.15011 3.81078C2.22431 3.7369 2.26604 3.63672 2.26614 3.53223ZM1.67249 3.53223C1.67249 3.49326 1.6841 3.45517 1.70584 3.42276C1.72759 3.39036 1.75849 3.3651 1.79465 3.35019C1.83081 3.33527 1.8706 3.33137 1.90898 3.33898C1.94737 3.34658 1.98263 3.36535 2.0103 3.3929C2.03798 3.42046 2.05682 3.45557 2.06446 3.49379C2.07209 3.53202 2.06817 3.57163 2.0532 3.60764C2.03822 3.64364 2.01286 3.67442 1.98031 3.69607C1.94777 3.71772 1.90951 3.72928 1.87038 3.72928C1.81791 3.72923 1.76761 3.70845 1.73051 3.67151C1.69341 3.63457 1.67255 3.58448 1.67249 3.53223Z" fill="#1B75BC"/>
<path id="Vector_2" d="M17.0245 3.34578L17.3187 2.96056L17.1329 2.85573L16.9441 3.28726H16.9378L16.7458 2.85868L16.5569 2.96666L16.8479 3.34282V3.34893L16.3928 3.29041V3.50006L16.8511 3.44154V3.44765L16.5569 3.82361L16.7334 3.93474L16.9348 3.50006H16.9407L17.1266 3.93159L17.3217 3.82066L17.0245 3.45061V3.4445L17.4919 3.50006V3.29041L17.0245 3.35189V3.34578ZM2.81525 10.6888L2.64566 10.9054L2.74737 10.9692L2.86333 10.719H2.86689L2.97375 10.9675L3.08615 10.9036L2.91498 10.6904V10.6871L3.1841 10.719V10.5982L2.91498 10.6337V10.6301L3.08437 10.4082L2.97751 10.3479L2.86867 10.5964H2.86511L2.75469 10.3497L2.64566 10.4118L2.81346 10.6283V10.6319L2.55127 10.5982V10.719L2.81525 10.6853V10.6888ZM29.5127 6.82538V6.61987L29.0542 6.68036V6.67425L29.3427 6.29632L29.1604 6.19346L28.9752 6.61671H28.9691L28.7809 6.19642L28.5955 6.30243L28.881 6.6713V6.6774L28.4344 6.61987V6.82538L28.884 6.76804V6.77415L28.5955 7.14302L28.7684 7.25199L28.9661 6.82538H28.9721L29.1543 7.24883L29.3457 7.14006L29.0542 6.77711V6.771L29.5127 6.82538ZM31.2443 1.87425L31.4933 1.54814L31.3362 1.45947L31.1763 1.8246H31.1709L31.0087 1.46203L30.8488 1.55346L31.0951 1.87169V1.87681L30.7099 1.82735V2.00469L31.0977 1.95504V1.96036L30.8488 2.27859L30.998 2.37258L31.1686 2.00469H31.1735L31.3308 2.36982L31.4959 2.27602L31.2443 1.96292V1.9576L31.6399 2.00469V1.82735L31.2443 1.87937V1.87425Z" fill="#A8D0FF"/>
<path id="Vector_3" d="M0.485122 29.7391C0.703698 29.7391 0.880889 29.5627 0.880889 29.345C0.880889 29.1274 0.703698 28.9509 0.485122 28.9509C0.266546 28.9509 0.0893555 29.1274 0.0893555 29.345C0.0893555 29.5627 0.266546 29.7391 0.485122 29.7391Z" fill="#1B75BC"/>
<path id="Vector_4" d="M2.26627 28.9509H1.67262C1.56766 28.9509 1.46699 28.9924 1.39277 29.0664C1.31855 29.1403 1.27686 29.2405 1.27686 29.345C1.27686 29.4495 1.31855 29.5498 1.39277 29.6237C1.46699 29.6976 1.56766 29.7391 1.67262 29.7391H2.26627C2.37124 29.7391 2.4719 29.6976 2.54612 29.6237C2.62034 29.5498 2.66204 29.4495 2.66204 29.345C2.66204 29.2405 2.62034 29.1403 2.54612 29.0664C2.4719 28.9924 2.37124 28.9509 2.26627 28.9509ZM31.7509 28.9509H31.1572C31.0523 28.9509 30.9516 28.9924 30.8774 29.0664C30.8032 29.1403 30.7615 29.2405 30.7615 29.345C30.7615 29.4495 30.8032 29.5498 30.8774 29.6237C30.9516 29.6976 31.0523 29.7391 31.1572 29.7391H31.7509C31.8558 29.7391 31.9565 29.6976 32.0307 29.6237C32.1049 29.5498 32.1466 29.4495 32.1466 29.345C32.1466 29.2405 32.1049 29.1403 32.0307 29.0664C31.9565 28.9924 31.8558 28.9509 31.7509 28.9509Z" fill="#1B75BC"/>
<path id="Vector_5" d="M32.9378 29.7391C33.1563 29.7391 33.3335 29.5627 33.3335 29.345C33.3335 29.1274 33.1563 28.9509 32.9378 28.9509C32.7192 28.9509 32.542 29.1274 32.542 29.345C32.542 29.5627 32.7192 29.7391 32.9378 29.7391Z" fill="#1B75BC"/>
<path id="Vector_6" d="M23.4702 30.5271H21.8262C21.7265 30.5348 21.6334 30.5797 21.5655 30.6527C21.4976 30.7258 21.4599 30.8216 21.4599 30.9212C21.4599 31.0207 21.4976 31.1166 21.5655 31.1897C21.6334 31.2627 21.7265 31.3076 21.8262 31.3153H23.4702C23.5699 31.3076 23.663 31.2627 23.7309 31.1897C23.7988 31.1166 23.8365 31.0207 23.8365 30.9212C23.8365 30.8216 23.7988 30.7258 23.7309 30.6527C23.663 30.5797 23.5699 30.5348 23.4702 30.5271ZM11.5972 30.5271H9.95319C9.85352 30.5348 9.76044 30.5797 9.69253 30.6527C9.62463 30.7258 9.58691 30.8216 9.58691 30.9212C9.58691 31.0207 9.62463 31.1166 9.69253 31.1897C9.76044 31.2627 9.85352 31.3076 9.95319 31.3153H11.5972C11.6969 31.3076 11.79 31.2627 11.8579 31.1897C11.9258 31.1166 11.9635 31.0207 11.9635 30.9212C11.9635 30.8216 11.9258 30.7258 11.8579 30.6527C11.79 30.5797 11.6969 30.5348 11.5972 30.5271ZM20.6694 30.5271H12.754C12.6491 30.5271 12.5484 30.5686 12.4742 30.6425C12.4 30.7164 12.3583 30.8167 12.3583 30.9212C12.3583 31.0257 12.4 31.1259 12.4742 31.1999C12.5484 31.2738 12.6491 31.3153 12.754 31.3153H15.9083V31.7094H14.3371C14.2321 31.7094 14.1315 31.7509 14.0572 31.8248C13.983 31.8987 13.9413 31.9989 13.9413 32.1035C13.9413 32.208 13.983 32.3082 14.0572 32.3821C14.1315 32.456 14.2321 32.4975 14.3371 32.4975H19.2842C19.3891 32.4975 19.4898 32.456 19.564 32.3821C19.6382 32.3082 19.6799 32.208 19.6799 32.1035C19.6799 31.9989 19.6382 31.8987 19.564 31.8248C19.4898 31.7509 19.3891 31.7094 19.2842 31.7094H17.5151V31.3153H20.6694C20.7743 31.3153 20.875 31.2738 20.9492 31.1999C21.0234 31.1259 21.0651 31.0257 21.0651 30.9212C21.0651 30.8167 21.0234 30.7164 20.9492 30.6425C20.875 30.5686 20.7743 30.5271 20.6694 30.5271Z" fill="#3C4652"/>
<path id="Vector_7" d="M29.914 28.9509H24.0329V21.8573H24.8244C24.9293 21.857 25.0298 21.8154 25.1039 21.7415C25.1781 21.6677 25.2199 21.5676 25.2202 21.4632V19.0987C25.2202 19.0423 25.2081 18.9865 25.1846 18.9351L23.2058 14.6002C23.1742 14.5314 23.1235 14.4732 23.0596 14.4323C22.9958 14.3914 22.9215 14.3697 22.8456 14.3696H18.4922C18.5067 14.6375 18.467 14.9055 18.3754 15.1578H22.5903L24.209 18.7046H6.83883L8.45752 15.1578H13.0682C12.9786 14.905 12.939 14.6374 12.9514 14.3696H8.20225C8.12635 14.3697 8.05207 14.3914 7.98823 14.4323C7.92438 14.4732 7.87367 14.5314 7.8421 14.6002C7.8421 14.6002 5.86327 18.9351 5.86129 18.9391C5.84236 18.9904 5.83103 19.0441 5.82765 19.0987V21.4632C5.82796 21.5676 5.86976 21.6677 5.94391 21.7415C6.01807 21.8154 6.11855 21.857 6.22342 21.8573H7.01495V28.9509H3.50846C3.45216 28.9436 3.39493 28.9483 3.34061 28.9648C3.28628 28.9812 3.23611 29.009 3.19344 29.0463C3.15076 29.0836 3.11658 29.1296 3.09315 29.1811C3.06973 29.2326 3.05762 29.2885 3.05762 29.345C3.05762 29.4015 3.06973 29.4574 3.09315 29.5089C3.11658 29.5604 3.15076 29.6064 3.19344 29.6437C3.23611 29.681 3.28628 29.7088 3.34061 29.7252C3.39493 29.7417 3.45216 29.7464 3.50846 29.7391H29.914C29.9703 29.7464 30.0275 29.7417 30.0819 29.7252C30.1362 29.7088 30.1864 29.681 30.229 29.6437C30.2717 29.6064 30.3059 29.5604 30.3293 29.5089C30.3527 29.4574 30.3648 29.4015 30.3648 29.345C30.3648 29.2885 30.3527 29.2326 30.3293 29.1811C30.3059 29.1296 30.2717 29.0836 30.229 29.0463C30.1864 29.009 30.1362 28.9812 30.0819 28.9648C30.0275 28.9483 29.9703 28.9436 29.914 28.9509ZM6.61918 21.0691V19.4928H24.4287V21.0691H6.61918ZM20.471 21.8573V25.01H10.5768V21.8573H20.471ZM7.80648 21.8573H9.78532V25.28L7.80648 28.0957V21.8573ZM8.17059 28.9509L10.3869 25.7982H20.661L22.8773 28.9509H8.17059ZM23.2414 28.0957L21.2625 25.28V21.8573H23.2414V28.0957Z" fill="#1B75BC"/>
<path id="Vector_8" d="M26.8031 4.51733H24.4285C24.2903 4.51777 24.1546 4.55441 24.0352 4.62359C23.9157 4.69276 23.8166 4.79203 23.7478 4.91142H16.5231C16.3514 4.911 16.1817 4.94698 16.025 5.01697C15.8684 5.08696 15.7286 5.18935 15.6148 5.31733L13.0443 8.2198C12.8569 8.43077 12.7535 8.70268 12.7534 8.98433V12.4129C12.97 12.0906 13.2373 11.8052 13.545 11.5676V8.98433C13.5454 8.89498 13.5785 8.80884 13.638 8.74196L16.2085 5.83753C16.2482 5.79375 16.2967 5.75882 16.351 5.73505C16.4052 5.71128 16.4638 5.6992 16.5231 5.6996H23.637V9.27201H23.0374C22.9782 9.27236 22.9198 9.28579 22.8664 9.31135C22.813 9.33691 22.766 9.37395 22.7287 9.4198C22.0813 10.2319 21.2262 10.8553 20.2532 11.2247C20.1808 11.2461 20.1162 11.2878 20.0672 11.3449L18.2882 13.4316C18.2148 13.5132 18.114 13.5654 18.0048 13.5784C17.8956 13.5915 17.7853 13.5645 17.6946 13.5026C17.37 13.2819 17.3502 13.1873 17.4136 12.9055C17.4909 12.5782 17.6494 12.2753 17.8746 12.0247L18.8601 10.8917C18.9004 10.8456 18.9294 10.7908 18.9449 10.7317C18.9603 10.6725 18.9618 10.6106 18.9491 10.5508L18.5831 8.83655C18.5588 8.74972 18.5123 8.67066 18.4481 8.6071C18.3839 8.54355 18.3043 8.49768 18.217 8.47398L16.3786 8.11733C16.3114 8.10386 16.2419 8.10824 16.1769 8.13003C16.112 8.15182 16.0539 8.19026 16.0086 8.24147L14.7006 9.69369C14.6356 9.76643 14.5997 9.86038 14.5997 9.95773V11.006C14.8563 10.9206 15.1219 10.8644 15.3912 10.8385V10.1095L16.4479 8.9331L17.8529 9.20699L18.1339 10.5232L17.277 11.5085C17.1659 11.635 17.066 11.7708 16.9782 11.9144L16.9743 11.9203C16.8535 12.153 16.7497 12.394 16.6636 12.6415C16.6557 12.675 16.6458 12.7085 16.6379 12.742C16.4716 13.5026 16.8318 13.8691 17.2473 14.1508C17.3829 14.2444 17.5366 14.3088 17.6985 14.34C17.9643 14.3858 18.2378 14.3543 18.4861 14.2494C18.6422 14.1776 18.7807 14.0727 18.8918 13.942L20.6015 11.938C21.6187 11.5379 22.5203 10.8927 23.2254 10.0602H23.639C23.6458 10.2644 23.732 10.4579 23.8792 10.6001C24.0265 10.7423 24.2234 10.8222 24.4285 10.8228H26.8031C26.9071 10.8228 27.01 10.8024 27.1061 10.7628C27.2021 10.7232 27.2894 10.6652 27.3629 10.592C27.4364 10.5188 27.4947 10.4319 27.5345 10.3362C27.5742 10.2406 27.5947 10.1381 27.5947 10.0346V5.30551C27.5947 5.202 27.5742 5.0995 27.5345 5.00386C27.4947 4.90822 27.4364 4.82132 27.3629 4.74813C27.2894 4.67493 27.2021 4.61688 27.1061 4.57728C27.01 4.53768 26.9071 4.51731 26.8031 4.51733ZM26.8031 10.0346H24.4285V5.30551H26.8031V10.0346Z" fill="#1B75BC"/>
<path id="Vector_9" d="M19.8773 16.9313C19.877 17.0357 19.8352 17.1358 19.761 17.2096C19.6869 17.2834 19.5864 17.3251 19.4815 17.3254H11.5662C11.4612 17.3254 11.3605 17.2839 11.2863 17.2099C11.2121 17.136 11.1704 17.0358 11.1704 16.9313C11.1704 16.8268 11.2121 16.7265 11.2863 16.6526C11.3605 16.5787 11.4612 16.5372 11.5662 16.5372H14.012C13.5616 16.1858 13.2318 15.7039 13.0681 15.1579C12.9785 14.9051 12.9389 14.6375 12.9514 14.3697C12.9515 13.6381 13.2434 12.9365 13.763 12.4192C14.2825 11.9019 14.987 11.6112 15.7217 11.6111C16.1589 11.6108 16.5898 11.7148 16.9783 11.9145L16.9743 11.9204C16.8536 12.1531 16.7497 12.3941 16.6637 12.6416C16.3755 12.4825 16.0513 12.399 15.7217 12.3993C15.3303 12.3993 14.9478 12.5148 14.6223 12.7313C14.2969 12.9479 14.0433 13.2556 13.8935 13.6156C13.7437 13.9757 13.7046 14.3719 13.7809 14.7541C13.8573 15.1363 14.0457 15.4874 14.3225 15.763C14.5992 16.0386 14.9518 16.2263 15.3357 16.3023C15.7195 16.3783 16.1174 16.3393 16.479 16.1902C16.8406 16.041 17.1496 15.7885 17.3671 15.4644C17.5845 15.1404 17.7006 14.7594 17.7006 14.3697C17.7006 14.3599 17.6986 14.35 17.6986 14.3401C17.9644 14.3859 18.2378 14.3545 18.4862 14.2495C18.4881 14.2889 18.4921 14.3283 18.4921 14.3697C18.5066 14.6376 18.4669 14.9056 18.3753 15.1579C18.2117 15.7039 17.8819 16.1858 17.4314 16.5372H19.4815C19.5864 16.5375 19.6869 16.5791 19.761 16.653C19.8352 16.7268 19.877 16.8269 19.8773 16.9313Z" fill="#3C4652"/>
</g>
<defs>
<clipPath id="clip0_527_923">
<rect width="33.2444" height="33.1034" fill="white" transform="translate(0.0893555 0.379395)"/>
</clipPath>
</defs>
</svg>
