<svg width="43" height="42" viewBox="0 0 43 42" fill="none" xmlns="http://www.w3.org/2000/svg">
<path d="M41.9559 15.3983C41.9559 7.30465 35.1074 1.0788 27.6364 1.0788C22.6557 1.0788 18.9202 3.56915 15.8073 6.68208C7.71365 6.68208 1.48779 13.5305 1.48779 21.0016C1.48779 29.0952 8.33624 35.321 15.8073 35.321C18.2976 39.0565 22.6557 40.9243 27.6364 40.9243C35.73 40.9243 41.9559 34.0759 41.9559 26.6048C41.9559 24.7371 41.3333 22.2467 40.7107 21.0016C41.3333 19.7564 41.9559 17.266 41.9559 15.3983Z" fill="#F5F5F5"/>
<path d="M22.0332 29.0952C12.6944 29.0952 5.22333 23.4919 2.1104 15.3983C1.48782 17.2661 0.865234 19.1338 0.865234 21.6242C0.865234 29.7178 7.71368 35.9437 15.1847 35.9437C17.6751 39.6792 22.0332 41.5469 27.0138 41.5469C31.3719 41.5469 35.1075 39.6792 37.5978 37.1888C31.3719 37.1888 25.1461 34.0759 22.0332 29.0952Z" fill="#F5F5F5"/>
<path d="M41.9559 15.3983C41.9559 7.30465 35.1074 1.0788 27.6364 1.0788C22.6557 1.0788 18.9202 3.56915 15.8073 6.68208C7.71365 6.68208 1.48779 13.5305 1.48779 21.0016C1.48779 29.0952 8.33624 35.321 15.8073 35.321C18.2976 39.0565 22.6557 40.9243 27.6364 40.9243C35.73 40.9243 41.9559 34.0759 41.9559 26.6048C41.9559 24.7371 41.3333 22.2467 40.7107 21.0016C41.3333 19.7564 41.9559 17.266 41.9559 15.3983Z" stroke="#45413C" stroke-miterlimit="10" stroke-linecap="round" stroke-linejoin="round"/>
</svg>
