<svg width="263" height="183" viewBox="0 0 263 183" fill="none" xmlns="http://www.w3.org/2000/svg">
<path d="M262.88 90.8975C262.88 78.4458 254.163 67.8619 242.334 65.3715C242.334 64.1264 242.957 62.8812 242.957 61.636C242.957 47.3165 231.128 35.4874 216.808 35.4874C211.205 35.4874 206.224 37.3552 201.866 39.8455V37.9777C201.866 23.6583 190.037 11.8291 175.718 11.8291C168.247 11.8291 162.021 14.9421 157.04 19.3002C153.927 8.09362 143.966 0 131.514 0C119.062 0 109.101 8.09362 105.988 19.3002C101.007 14.3195 94.7815 11.8291 87.3105 11.8291C72.991 11.8291 61.1619 23.6583 61.1619 37.9777V39.8455C56.8038 36.7326 51.8231 35.4874 46.2198 35.4874C31.9003 35.4874 20.0712 47.3165 20.0712 61.636C20.0712 62.8812 20.0712 64.1264 20.6938 65.3715C8.86464 67.8619 0.148438 78.4458 0.148438 90.8975C0.148438 103.972 9.48723 114.556 22.5615 117.046C21.3164 120.159 20.6938 123.272 20.6938 126.385C20.6938 140.704 32.5229 152.534 46.8424 152.534C52.4457 152.534 57.4263 150.666 61.7844 148.175V150.043C61.7844 164.363 73.6136 176.192 87.9331 176.192C96.0267 176.192 102.875 172.456 107.856 166.853C112.214 175.569 120.93 182.418 131.514 182.418C142.098 182.418 151.437 176.192 155.172 166.853C160.153 172.456 167.001 176.192 175.095 176.192C189.415 176.192 201.244 164.363 201.244 150.043V148.175C205.602 151.288 210.582 152.534 216.186 152.534C230.505 152.534 242.334 140.704 242.334 126.385C242.334 123.272 241.712 120.159 240.467 117.046C253.541 115.178 262.88 103.972 262.88 90.8975Z" fill="#F5F5F5"/>
</svg>
