<svg width="33" height="33" viewBox="0 0 33 33" fill="none" xmlns="http://www.w3.org/2000/svg">
<g id="employee-care 1">
<path id="Vector" d="M28.8078 20.4167C29.1049 19.2158 28.7555 16.6078 28.2775 14.556C27.5859 11.587 26.7589 9.95234 25.8182 9.69711C25.6858 9.66159 25.551 9.64355 25.4177 9.64355C24.2455 9.64355 23.4849 10.9663 23.3198 11.9028C23.0942 13.1512 23.3341 15.018 23.7463 16.5265C22.3722 16.6501 21.1435 18.3438 20.3427 19.7731C19.4862 21.3023 18.751 23.2211 18.6329 24.2337C18.5918 24.5729 18.5432 25.8259 18.5476 26.6871C18.2215 26.699 17.9604 26.974 17.9604 27.3124V31.0704C17.9604 31.4163 18.233 31.6968 18.5692 31.6968H27.0913C27.4667 31.6968 27.7537 31.3497 27.6917 30.9675L27.083 27.2094C27.0341 26.9074 26.7802 26.686 26.4826 26.686H25.8861C26.0164 25.1548 26.5794 24.3965 27.2202 23.5347C27.7949 22.762 28.4463 21.8861 28.8078 20.4167ZM26.3727 30.4441H19.1779V27.9387C20.5344 27.9387 24.5832 27.9387 25.9669 27.9387L26.3727 30.4441ZM24.6643 26.686H19.7646C19.7618 25.9168 19.8037 24.6971 19.8413 24.3857C19.9289 23.6352 20.5349 21.9387 21.3975 20.3987C22.4824 18.462 23.4044 17.772 23.9055 17.772C23.9426 17.772 23.9914 17.7752 24.0713 17.7944C24.1463 17.8314 24.1639 17.8726 24.1731 17.8945C24.2047 17.9702 24.3309 18.4134 23.7121 19.705C23.2607 20.6472 22.7064 21.4632 22.4027 21.9393C22.2183 22.2286 22.2966 22.6168 22.5777 22.8067C22.8596 22.997 23.2367 22.9148 23.4206 22.6266C23.4483 22.5831 23.4838 22.5286 23.5255 22.4644C24.6255 20.7724 25.8205 18.6678 25.2919 17.4004C25.2894 17.3945 25.2865 17.3884 25.2839 17.3824C25.2804 17.3153 25.2667 17.248 25.2414 17.1828C24.7017 15.7935 24.2817 13.4323 24.5173 12.129C24.6131 11.5855 25.0563 10.8961 25.4179 10.8961C25.4475 10.8961 25.4788 10.9004 25.5053 10.9074C25.7507 11.004 26.4666 12.1146 27.113 14.931C27.6057 17.0776 27.8271 19.3031 27.6279 20.1083C27.3275 21.3291 26.8059 22.0306 26.2535 22.7734C25.5405 23.7322 24.8055 24.7205 24.6643 26.686Z" fill="#1B75BC"/>
<path id="Vector_2" d="M24.2264 28.7483C23.9903 28.9912 23.9875 29.3882 24.2264 29.634C24.4627 29.8783 24.9739 29.7511 25.0871 29.634C25.3246 29.3896 25.3248 28.9941 25.0871 28.7483C24.8483 28.5027 24.4627 28.5052 24.2264 28.7483ZM14.3301 26.6871C14.3345 25.826 14.2859 24.5737 14.2451 24.2365C14.1267 23.2211 13.3915 21.3023 12.5349 19.7731C11.7342 18.3438 10.5055 16.6501 9.1314 16.5265C9.54357 15.0181 9.78359 13.1517 9.55836 11.9055C9.39273 10.9663 8.63219 9.64355 7.45991 9.64355C7.32654 9.64355 7.19183 9.66159 7.05797 9.69755C6.11865 9.95234 5.2917 11.587 4.60007 14.556C4.12204 16.6079 3.77269 19.2158 4.06963 20.4159C4.43139 21.8862 5.08272 22.7621 5.65742 23.5349C6.29822 24.3965 6.86123 25.1548 6.99156 26.686H6.39507C6.09753 26.686 5.84357 26.9074 5.79463 27.2094L5.1859 30.9675C5.12418 31.3485 5.40979 31.6968 5.78635 31.6968H14.3085C14.6447 31.6968 14.9172 31.4163 14.9172 31.0704V27.3124C14.9172 26.974 14.6562 26.699 14.3301 26.6871ZM6.62432 22.7735C6.07196 22.0308 5.55022 21.3292 5.2497 20.1076C5.05064 19.3032 5.2721 17.0779 5.76474 14.9312C6.41114 12.1147 7.127 11.0041 7.3669 10.9092C7.39891 10.9005 7.43026 10.8962 7.45991 10.8962C7.82137 10.8962 8.26464 11.5857 8.36094 12.1318C8.59603 13.4324 8.17607 15.7936 7.63638 17.183C7.61112 17.248 7.59736 17.3153 7.59395 17.3823C7.59133 17.3884 7.58835 17.3945 7.58585 17.4005C7.05724 18.6678 8.2521 20.7724 9.35212 22.4644C9.39388 22.5286 9.42937 22.5831 9.45713 22.6267C9.64084 22.9148 10.0178 22.9972 10.3 22.8068C10.5811 22.617 10.6595 22.2287 10.475 21.9395C10.1836 21.4821 9.61966 20.6527 9.16561 19.7049C8.54691 18.4134 8.67309 17.9703 8.70469 17.8946C8.71382 17.8727 8.73141 17.8315 8.80646 17.7945C8.88469 17.7757 8.93521 17.7721 8.97228 17.7721C9.47338 17.7721 10.3954 18.4621 11.4802 20.3988C12.3429 21.9388 12.9489 23.6353 13.0367 24.3886C13.0742 24.6979 13.116 25.917 13.1131 26.6861H8.21351C8.0721 24.7205 7.33719 23.7322 6.62432 22.7735ZM13.6997 30.4441H6.50494L6.91078 27.9387C8.29642 27.9387 12.34 27.9387 13.6998 27.9387V30.4441H13.6997Z" fill="#1B75BC"/>
<path id="Vector_3" d="M7.79091 29.6341C8.02716 29.8784 8.53842 29.7512 8.65165 29.6341C8.88905 29.3898 8.88929 28.9942 8.65165 28.7484C8.41619 28.5062 8.03063 28.5019 7.79091 28.7484C7.55315 28.9945 7.55369 29.39 7.79091 29.6341ZM8.70862 7.20318C9.00915 7.35789 9.37499 7.23274 9.52541 6.92339C10.7186 4.47024 13.4324 2.88502 16.439 2.88502C19.4457 2.88502 22.1595 4.47024 23.3527 6.92358C23.5022 7.23093 23.8669 7.35914 24.1695 7.20337C24.4701 7.04854 24.5919 6.67229 24.4414 6.36294C23.0437 3.48919 19.9026 1.63232 16.439 1.63232C12.9755 1.63232 9.8344 3.48919 8.43671 6.36275C8.28623 6.6721 8.40798 7.04841 8.70862 7.20318Z" fill="#1B75BC"/>
<path id="Vector_4" d="M11.8736 13.8458V15.4117C11.8736 15.7575 12.1461 16.038 12.4823 16.038H20.3957C20.7319 16.038 21.0045 15.7575 21.0045 15.4117V13.8458C21.0045 12.4881 20.2341 11.2217 18.9962 10.4726C19.116 10.1527 19.1783 9.81157 19.1783 9.46138C19.1783 7.90723 17.9494 6.64282 16.439 6.64282C14.9722 6.64282 13.7969 7.82593 13.7057 9.27517C13.6799 9.68499 13.7416 10.0937 13.8827 10.472C12.6443 11.2212 11.8736 12.4877 11.8736 13.8458ZM14.9206 9.35616C14.9696 8.57855 15.576 7.95226 16.3311 7.89927C17.2287 7.83664 17.9609 8.57028 17.9609 9.46138C17.9609 10.5491 16.9012 11.3084 15.9106 10.929C15.6317 10.8222 15.3846 10.6322 15.2058 10.3782C14.9959 10.0799 14.8972 9.72645 14.9206 9.35616ZM13.0911 13.8458C13.0911 12.8992 13.6451 12.035 14.5622 11.5131C15.6211 12.5362 17.2626 12.5314 18.3159 11.5131C19.233 12.035 19.787 12.8992 19.787 13.8458V14.7853H13.0911V13.8458ZM24.2264 8.33803C24.4637 8.5835 24.974 8.45516 25.0872 8.33803C25.3246 8.09369 25.3248 7.69815 25.0872 7.45231C24.8504 7.20866 24.4631 7.20904 24.2264 7.45231C23.9858 7.69997 23.9921 8.0982 24.2264 8.33803ZM8.65165 8.33803C8.88905 8.09369 8.8893 7.69815 8.65165 7.45231C8.4148 7.20866 8.02753 7.20898 7.79092 7.45231C7.55601 7.69408 7.55084 8.09087 7.79092 8.33803C8.02869 8.584 8.53843 8.45522 8.65165 8.33803Z" fill="#3C4652"/>
</g>
</svg>
