<svg width="33" height="33" viewBox="0 0 33 33" fill="none" xmlns="http://www.w3.org/2000/svg">
<g id="charity-network (1) 1" clip-path="url(#clip0_506_571)">
<path id="Vector" d="M16.8087 19.0971C16.8087 19.0971 27.8015 13.7416 27.8015 6.90018C27.8015 3.44742 24.9889 0.646729 21.5215 0.646729C19.6321 0.646729 17.9574 1.5019 16.798 2.81673C15.6493 1.5019 13.9746 0.646729 12.0745 0.646729C8.60705 0.646729 5.79443 3.44742 5.79443 6.90018C5.8159 13.7416 16.8087 19.0971 16.8087 19.0971Z" fill="#1B75BC"/>
<path id="Vector_2" d="M3.32512 32.1813C4.62355 32.1813 5.67613 31.1332 5.67613 29.8403C5.67613 28.5474 4.62355 27.4993 3.32512 27.4993C2.0267 27.4993 0.974121 28.5474 0.974121 29.8403C0.974121 31.1332 2.0267 32.1813 3.32512 32.1813Z" fill="#3C4652"/>
<path id="Vector_3" d="M30.2919 32.1813C31.5903 32.1813 32.6429 31.1332 32.6429 29.8403C32.6429 28.5474 31.5903 27.4993 30.2919 27.4993C28.9935 27.4993 27.9409 28.5474 27.9409 29.8403C27.9409 31.1332 28.9935 32.1813 30.2919 32.1813Z" fill="#3C4652"/>
<path id="Vector_4" d="M28.6818 26.27L30.1525 25.6072L29.7875 24.7948C29.036 23.309 27.5438 22.3897 25.8799 22.3897H17.6245V20.4548H16.0143V22.3897H7.74818C6.08423 22.3897 4.5813 23.309 3.8191 24.8269L3.46484 25.6072L4.93556 26.27L5.26835 25.5217C5.7407 24.581 6.68539 24.0038 7.73744 24.0038H15.9928V25.9386H17.6031V24.0038H25.8584C26.9105 24.0038 27.8551 24.581 28.3168 25.4897L28.6818 26.27ZM16.8087 27.4993C15.5097 27.4993 14.4577 28.5469 14.4577 29.8404C14.4577 31.1338 15.5097 32.1814 16.8087 32.1814C18.1076 32.1814 19.1597 31.1338 19.1597 29.8404C19.1597 28.5469 18.1076 27.4993 16.8087 27.4993Z" fill="#5DC5E5"/>
<path id="Vector_5" d="M16.75 32.5C18.2688 32.5 19.5 31.2688 19.5 29.75C19.5 28.2312 18.2688 27 16.75 27C15.2312 27 14 28.2312 14 29.75C14 31.2688 15.2312 32.5 16.75 32.5Z" fill="#3C4652"/>
</g>
<defs>
<clipPath id="clip0_506_571">
<rect width="32.2055" height="32.069" fill="white" transform="translate(0.705566 0.379395)"/>
</clipPath>
</defs>
</svg>
