<svg width="227" height="98" viewBox="0 0 227 98" fill="none" xmlns="http://www.w3.org/2000/svg">
<path d="M1.10083 3.85632V31.0507" stroke="white" stroke-width="1.81296"/>
<path d="M1.10083 3.85632V31.0507" stroke="url(#paint0_linear_118_49)" stroke-width="1.81296"/>
<path d="M1.10083 67.3098V94.5042" stroke="white" stroke-width="1.81296"/>
<path d="M1.10083 67.3098V94.5042" stroke="url(#paint1_linear_118_49)" stroke-width="1.81296"/>
<path d="M73.6191 67.3098V94.5042" stroke="white" stroke-width="1.81296"/>
<path d="M73.6191 67.3098V94.5042" stroke="url(#paint2_linear_118_49)" stroke-width="1.81296"/>
<path d="M71.8062 4.76282V31.9572" stroke="white" stroke-width="1.81296"/>
<path d="M71.8062 4.76282V31.9572" stroke="url(#paint3_linear_118_49)" stroke-width="1.81296"/>
<path d="M0.194336 3.85632L27.3887 3.85632" stroke="white" stroke-width="1.81296"/>
<path d="M0.194336 3.85632L27.3887 3.85632" stroke="url(#paint4_linear_118_49)" stroke-width="1.81296"/>
<path d="M0.194336 94.5042L27.3887 94.5042" stroke="white" stroke-width="1.81296"/>
<path d="M0.194336 94.5042L27.3887 94.5042" stroke="url(#paint5_linear_118_49)" stroke-width="1.81296"/>
<path d="M47.3313 94.5042L74.5257 94.5042" stroke="white" stroke-width="1.81296"/>
<path d="M47.3313 94.5042L74.5257 94.5042" stroke="url(#paint6_linear_118_49)" stroke-width="1.81296"/>
<path d="M45.5183 3.85632L72.7127 3.85632" stroke="white" stroke-width="1.81296"/>
<path d="M45.5183 3.85632L72.7127 3.85632" stroke="url(#paint7_linear_118_49)" stroke-width="1.81296"/>
<path d="M14.8114 80V71.6788H20.7424V24.3188H14.8114V15.9977H36.0127C43.3897 15.9977 48.8191 17.5321 52.301 20.6009C55.8124 23.6402 57.5681 27.5352 57.5681 32.2859V34.6761C57.5681 38.3645 56.5206 41.7137 54.4256 44.7235C52.36 47.7333 49.1732 49.8873 44.865 51.1857L55.9305 71.7673H61.2861V80H50.9289L36.057 52.3807H36.0127H29.9489V71.6788H35.8799V80H14.8114ZM35.7471 44.0595C39.7897 44.0595 42.9028 43.2776 45.0864 41.7137C47.2699 40.1203 48.3617 37.6268 48.3617 34.2335V32.7728C48.3617 29.7925 47.3289 27.6385 45.2634 26.3106C43.1979 24.9828 40.0258 24.3188 35.7471 24.3188H29.9489V44.0595H35.7471Z" fill="url(#paint8_linear_118_49)"/>
<path d="M107.431 17.7278C114.078 17.7278 119.91 19.0271 124.926 21.6257C130.002 24.2242 133.9 27.9408 136.619 32.7753C139.399 37.5495 140.789 43.1092 140.789 49.4545C140.789 55.7999 139.399 61.3596 136.619 66.1338C133.9 70.8474 130.002 74.5036 124.926 77.1021C119.91 79.7007 114.078 81 107.431 81H85.3127V17.7278H107.431ZM106.978 70.2129C113.625 70.2129 118.762 68.3999 122.388 64.774C126.014 61.1481 127.827 56.0416 127.827 49.4545C127.827 42.8675 126.014 37.7308 122.388 34.0444C118.762 30.2976 113.625 28.4242 106.978 28.4242H98.0034V70.2129H106.978Z" fill="#23CF8E"/>
<path d="M226.814 17.7278V81H214.123V39.8459L197.172 81H187.563L170.522 39.8459V81H157.831V17.7278H172.244L192.368 64.774L212.492 17.7278H226.814Z" fill="#23CF8E"/>
<defs>
<linearGradient id="paint0_linear_118_49" x1="1.77835" y1="25.9036" x2="1.2442" y2="25.9039" gradientUnits="userSpaceOnUse">
<stop stop-color="#0DCAF0"/>
<stop offset="1" stop-color="#27D07D"/>
</linearGradient>
<linearGradient id="paint1_linear_118_49" x1="1.77835" y1="89.3571" x2="1.2442" y2="89.3573" gradientUnits="userSpaceOnUse">
<stop stop-color="#0DCAF0"/>
<stop offset="1" stop-color="#27D07D"/>
</linearGradient>
<linearGradient id="paint2_linear_118_49" x1="74.2967" y1="89.3571" x2="73.7625" y2="89.3573" gradientUnits="userSpaceOnUse">
<stop stop-color="#0DCAF0"/>
<stop offset="1" stop-color="#27D07D"/>
</linearGradient>
<linearGradient id="paint3_linear_118_49" x1="72.4837" y1="26.8101" x2="71.9495" y2="26.8104" gradientUnits="userSpaceOnUse">
<stop stop-color="#0DCAF0"/>
<stop offset="1" stop-color="#27D07D"/>
</linearGradient>
<linearGradient id="paint4_linear_118_49" x1="22.2416" y1="3.17881" x2="22.2419" y2="3.71295" gradientUnits="userSpaceOnUse">
<stop stop-color="#0DCAF0"/>
<stop offset="1" stop-color="#27D07D"/>
</linearGradient>
<linearGradient id="paint5_linear_118_49" x1="22.2416" y1="93.8266" x2="22.2419" y2="94.3608" gradientUnits="userSpaceOnUse">
<stop stop-color="#0DCAF0"/>
<stop offset="1" stop-color="#27D07D"/>
</linearGradient>
<linearGradient id="paint6_linear_118_49" x1="69.3786" y1="93.8266" x2="69.3788" y2="94.3608" gradientUnits="userSpaceOnUse">
<stop stop-color="#0DCAF0"/>
<stop offset="1" stop-color="#27D07D"/>
</linearGradient>
<linearGradient id="paint7_linear_118_49" x1="67.5656" y1="3.17881" x2="67.5658" y2="3.71295" gradientUnits="userSpaceOnUse">
<stop stop-color="#0DCAF0"/>
<stop offset="1" stop-color="#27D07D"/>
</linearGradient>
<linearGradient id="paint8_linear_118_49" x1="47.2095" y1="82.3696" x2="19.4349" y2="82.5363" gradientUnits="userSpaceOnUse">
<stop stop-color="#0DCAF0"/>
<stop offset="1" stop-color="#27D07D"/>
</linearGradient>
</defs>
</svg>
