<svg width="111" height="111" viewBox="0 0 111 111" fill="none" xmlns="http://www.w3.org/2000/svg">
<path fill-rule="evenodd" clip-rule="evenodd" d="M37 32.375C37 27.4685 38.9491 22.7629 42.4185 19.2935C45.8879 15.8241 50.5935 13.875 55.5 13.875C60.4065 13.875 65.1121 15.8241 68.5815 19.2935C72.0509 22.7629 74 27.4685 74 32.375C74 37.2815 72.0509 41.9871 68.5815 45.4565C65.1121 48.9259 60.4065 50.875 55.5 50.875C50.5935 50.875 45.8879 48.9259 42.4185 45.4565C38.9491 41.9871 37 37.2815 37 32.375ZM37 60.125C30.8669 60.125 24.9849 62.5614 20.6482 66.8982C16.3114 71.2349 13.875 77.1169 13.875 83.25C13.875 86.9299 15.3368 90.459 17.9389 93.0611C20.541 95.6632 24.0701 97.125 27.75 97.125H83.25C86.9299 97.125 90.459 95.6632 93.0611 93.0611C95.6632 90.459 97.125 86.9299 97.125 83.25C97.125 77.1169 94.6886 71.2349 90.3518 66.8982C86.0151 62.5614 80.1331 60.125 74 60.125H37Z" fill="black"/>
</svg>
