<svg width="35" height="34" viewBox="0 0 35 34" fill="none" xmlns="http://www.w3.org/2000/svg">
<g clip-path="url(#clip0_586_629)">
<path fill-rule="evenodd" clip-rule="evenodd" d="M3.28583 21.9118C1.8459 21.9118 0.682129 20.7283 0.682129 19.3081C0.682129 17.8682 1.8459 16.6847 3.28583 16.6847C4.72576 16.6847 5.90926 17.8682 5.90926 19.3081C5.90926 20.748 4.72576 21.9118 3.28583 21.9118ZM18.6319 20.1168H15.8309C15.2984 20.1168 14.7658 20.0379 14.2727 19.8801L13.7795 21.8132L17.2314 25.3242L20.6833 21.8132L20.1902 19.8801C19.697 20.0379 19.1842 20.1168 18.6319 20.1168ZM13.2272 19.4067C11.452 18.3613 10.229 16.2902 10.229 13.9232C10.229 7.47307 13.6809 9.99787 15.8901 8.34097C17.4089 7.19692 18.7897 6.26985 20.486 6.32902C21.9457 6.36847 24.2535 7.0983 24.2535 8.85382V13.9232C24.2535 16.2902 23.0306 18.3613 21.2553 19.4067L21.7682 21.3989H24.1943C24.8847 21.3989 25.5554 21.5567 26.1668 21.8132V10.4515C26.1668 5.5203 22.1627 1.51612 17.2314 1.51612C12.3199 1.51612 8.31571 5.5203 8.31571 10.4515V21.8132C8.92718 21.5567 9.59783 21.3989 10.2882 21.3989H12.7144L13.2272 19.4067ZM20.3282 7.45335C19.0461 7.45335 17.9218 8.24235 16.5608 9.24832C13.7795 11.3392 11.3731 8.40015 11.3731 13.9232C11.3731 16.6255 13.3061 18.9728 15.8309 18.9728H18.6319C21.1764 18.9728 23.1095 16.6255 23.1095 13.9232V8.85382C23.1095 7.98592 21.2553 7.45335 20.3282 7.45335ZM25.1017 33.5693H5.33723C5.06108 33.5693 4.78493 33.3128 4.78493 32.9972V27.4742C4.78493 25.4031 5.73173 23.5687 7.17166 22.4838V10.4515C7.17166 4.8891 11.6887 0.37207 17.2314 0.37207C22.7939 0.37207 27.3109 4.8891 27.3109 10.4515V22.4838C28.7508 23.5687 29.6976 25.4031 29.6976 27.4742V32.9972C29.6976 33.3128 29.4215 33.5693 29.1256 33.5693H25.1017ZM9.95288 32.4252H24.5297V28.5591C24.5297 27.8096 25.654 27.8096 25.654 28.5591V29.3284H28.5536V27.4742C28.5536 24.8903 26.6994 22.543 24.1943 22.543H21.5709L17.6456 26.5472C17.4287 26.7641 17.0539 26.7641 16.8369 26.5472L12.9116 22.543H10.2882C7.78313 22.543 5.92898 24.8903 5.92898 27.4742V29.3284H8.80883C8.80883 28.8155 8.67076 27.9871 9.38086 27.9871C10.1304 27.9871 9.95288 28.9339 9.95288 29.6243V32.4252ZM19.2828 17.3159C18.5135 17.3159 18.0204 16.5071 15.3575 17.2764C14.6474 17.4934 14.3121 16.3888 15.0419 16.1915C16.8172 15.659 17.6851 15.659 19.4406 16.1915C20.0718 16.3691 19.9337 17.3159 19.2828 17.3159ZM2.77298 8.18317C2.29958 8.18317 2.02343 7.63087 2.3193 7.2561C2.37848 7.19692 2.77298 6.64462 2.3982 5.9148C1.6092 4.45515 2.57573 2.58127 3.38445 3.2322C3.62115 3.42945 3.6606 3.7845 3.46335 4.04092C3.4239 4.1001 3.00968 4.6524 3.40418 5.38222C4.11428 6.7038 3.40418 8.18317 2.77298 8.18317ZM5.21888 7.37445C4.74548 7.37445 4.48906 6.82215 4.78493 6.42765C4.80466 6.40792 5.10053 6.01342 4.82438 5.50057C4.13401 4.21845 5.04136 2.62072 5.79091 3.2322C6.02761 3.42945 6.06706 3.7845 5.86981 4.04092C5.83036 4.08037 5.57393 4.47487 5.83036 4.968C6.40238 6.01342 5.88953 7.37445 5.21888 7.37445ZM31.7096 19.8604C31.0784 19.8604 30.3683 18.381 31.0784 17.0594C31.4729 16.2902 31.0192 15.7181 31.0192 15.7181C30.5261 15.1461 31.4137 14.4163 31.8871 14.9883C31.9265 15.0278 32.8339 16.1718 32.0843 17.592C31.6898 18.3416 32.1435 18.9136 32.1435 18.9136C32.4591 19.3081 32.183 19.8604 31.7096 19.8604ZM29.2439 19.0517C28.5733 19.0517 28.0802 17.6906 28.6522 16.6452C28.9283 16.1126 28.6127 15.7181 28.6127 15.7181C28.1196 15.1461 29.0072 14.4163 29.4806 14.9883C29.7962 15.3631 30.171 16.231 29.6582 17.1778C29.382 17.6906 29.6582 18.0851 29.6976 18.1246C29.9935 18.4994 29.6976 19.0517 29.2439 19.0517ZM29.6976 32.9972C29.6976 33.017 29.6976 33.017 29.6976 33.0367V32.9972ZM25.654 32.4252H28.5536V30.4724H25.654V32.4252ZM5.92898 32.4252H8.80883V30.4724H5.92898V32.4252ZM14.1543 27.849H11.6492C10.8997 27.849 10.8997 26.705 11.6492 26.705H14.1543C14.9236 26.705 14.9236 27.849 14.1543 27.849ZM14.5883 14.5346C13.8979 14.5346 14.0162 13.7259 14.0162 13.2525C14.0162 12.503 15.1603 12.503 15.1603 13.2525C15.1603 13.7259 15.2786 14.5346 14.5883 14.5346ZM19.8943 14.5346C19.1842 14.5346 19.3223 13.7259 19.3223 13.2525C19.3223 12.503 20.4663 12.503 20.4663 13.2525C20.4663 13.7259 20.5847 14.5346 19.8943 14.5346ZM13.8387 12.3649C13.1681 12.3649 13.0497 11.4181 13.6809 11.2406L14.9828 10.9052C15.6929 10.708 15.9887 11.8126 15.2786 12.0098L13.8387 12.3649ZM20.6438 12.3649L19.2039 12.0098C18.4741 11.8126 18.77 10.708 19.4998 10.9052L20.7819 11.2406C21.4328 11.4181 21.2948 12.3649 20.6438 12.3649ZM30.4274 7.0983C28.593 7.0983 27.0742 5.57947 27.0742 3.72532C27.0742 1.87117 28.593 0.37207 30.4274 0.37207C32.2816 0.37207 33.8004 1.87117 33.8004 3.72532C33.8004 5.57947 32.2816 7.0983 30.4274 7.0983ZM30.4274 1.51612C29.2242 1.51612 28.2182 2.50237 28.2182 3.72532C28.2182 4.94827 29.2242 5.95425 30.4274 5.95425C31.6504 5.95425 32.6564 4.94827 32.6564 3.72532C32.6564 2.50237 31.6504 1.51612 30.4274 1.51612ZM3.28583 17.8287C2.4771 17.8287 1.82618 18.4796 1.82618 19.3081C1.82618 20.1168 2.4771 20.7677 3.28583 20.7677C4.09455 20.7677 4.76521 20.1168 4.76521 19.3081C4.76521 18.4796 4.09455 17.8287 3.28583 17.8287Z" fill="url(#paint0_linear_586_629)"/>
</g>
<defs>
<linearGradient id="paint0_linear_586_629" x1="0.679565" y1="16.9674" x2="33.7963" y2="16.9674" gradientUnits="userSpaceOnUse">
<stop stop-color="#06B4D7"/>
<stop offset="0.701603" stop-color="#2D4356"/>
</linearGradient>
<clipPath id="clip0_586_629">
<rect width="33.6706" height="33.6706" fill="white" transform="translate(0.405762 0.135376)"/>
</clipPath>
</defs>
</svg>
