<svg width="38" height="38" viewBox="0 0 38 38" fill="none" xmlns="http://www.w3.org/2000/svg">
<g id="no-locked 1">
<g id="Group">
<path id="Vector" d="M13.2663 23.4118C15.8491 23.4118 17.9428 21.3181 17.9428 18.7353C17.9428 16.1526 15.8491 14.0588 13.2663 14.0588C10.6836 14.0588 8.58984 16.1526 8.58984 18.7353C8.58984 21.3181 10.6836 23.4118 13.2663 23.4118Z" fill="#073B4C"/>
<path id="Vector_2" d="M13.2719 29.2573C12.6253 29.2572 11.98 29.1999 11.3436 29.0861C9.27784 28.7122 7.37244 27.7253 5.87521 26.2539C4.37797 24.7824 3.35819 22.8944 2.94851 20.8355C2.41869 18.2239 2.89887 15.5085 4.29222 13.237C5.68556 10.9654 7.8884 9.30673 10.4565 8.59536C13.0246 7.88399 15.767 8.17287 18.1305 9.40375C20.494 10.6346 22.3028 12.7159 23.1923 15.2279H26.1265V12.8897C26.1265 12.7362 26.1567 12.5841 26.2154 12.4422C26.2742 12.3004 26.3603 12.1715 26.4688 12.0629C26.5774 11.9543 26.7063 11.8682 26.8482 11.8095C26.99 11.7507 27.1421 11.7205 27.2956 11.7206H31.9721C32.1256 11.7205 32.2777 11.7507 32.4195 11.8095C32.5614 11.8682 32.6903 11.9543 32.7989 12.0629C32.9074 12.1715 32.9936 12.3004 33.0523 12.4422C33.111 12.5841 33.1412 12.7362 33.1412 12.8897V15.2279H34.3103C34.4639 15.2279 34.6159 15.2581 34.7578 15.3168C34.8996 15.3756 35.0285 15.4617 35.1371 15.5703C35.2457 15.6788 35.3318 15.8077 35.3905 15.9496C35.4493 16.0915 35.4795 16.2435 35.4794 16.397V21.0735C35.4795 21.2271 35.4493 21.3791 35.3905 21.521C35.3318 21.6628 35.2457 21.7917 35.1371 21.9003C35.0285 22.0089 34.8996 22.095 34.7578 22.1537C34.6159 22.2125 34.4639 22.2427 34.3103 22.2426H23.1934C22.4766 24.2998 21.1351 26.0816 19.3563 27.3393C17.5775 28.5969 15.4503 29.2675 13.2719 29.2573ZM13.2662 10.5515C12.0581 10.5498 10.8647 10.8162 9.77214 11.3317C8.67953 11.8471 7.71493 12.5986 6.94794 13.5319C6.174 14.4777 5.61965 15.5835 5.32488 16.7695C5.03011 17.9555 5.00227 19.1921 5.24337 20.3902C5.5613 21.9861 6.35212 23.4494 7.51297 24.5898C8.67382 25.7302 10.151 26.4949 11.7523 26.7844C13.7942 27.1697 15.9062 26.7638 17.6597 25.6489C19.4133 24.534 20.6769 22.7937 21.1943 20.7812C21.2593 20.5303 21.4057 20.308 21.6107 20.1493C21.8157 19.9906 22.0676 19.9044 22.3269 19.9044H33.1412V17.5662H31.9721C31.8185 17.5662 31.6665 17.536 31.5246 17.4773C31.3828 17.4185 31.2539 17.3324 31.1453 17.2238C31.0367 17.1153 30.9506 16.9864 30.8919 16.8445C30.8331 16.7026 30.8029 16.5506 30.803 16.397V14.0588H28.4647V16.397C28.4648 16.5506 28.4346 16.7026 28.3758 16.8445C28.3171 16.9864 28.231 17.1153 28.1224 17.2238C28.0138 17.3324 27.8849 17.4185 27.7431 17.4773C27.6012 17.536 27.4492 17.5662 27.2956 17.5662H22.3269C22.0675 17.5661 21.8156 17.4799 21.6106 17.3211C21.4056 17.1623 21.2591 16.9398 21.1943 16.6888C20.7406 14.9313 19.7156 13.3746 18.2803 12.2636C16.8451 11.1526 15.0812 10.5503 13.2662 10.5515Z" fill="#0BCEB2"/>
<path id="Vector_3" d="M34.3105 35.1029C34.157 35.1031 34.0049 35.0729 33.8631 35.0141C33.7212 34.9554 33.5924 34.8691 33.484 34.7604L3.08689 4.36331C2.87094 4.14342 2.75057 3.84714 2.75197 3.53894C2.75336 3.23074 2.87641 2.93556 3.09434 2.71763C3.31227 2.4997 3.60745 2.37665 3.91565 2.37526C4.22385 2.37386 4.52013 2.49423 4.74002 2.71018L35.1371 33.1072C35.3005 33.2707 35.4118 33.479 35.4569 33.7058C35.502 33.9325 35.4789 34.1676 35.3904 34.3812C35.3019 34.5948 35.1521 34.7773 34.9599 34.9058C34.7677 35.0343 34.5417 35.1029 34.3105 35.1029Z" fill="#2D4356"/>
</g>
</g>
</svg>
