<svg width="44" height="44" viewBox="0 0 44 44" fill="none" xmlns="http://www.w3.org/2000/svg">
<g id="reward (2) 2" clip-path="url(#clip0_586_751)">
<path id="Vector" d="M11.8388 9.17394C11.9907 9.17394 12.1393 9.12888 12.2656 9.04446C12.3919 8.96004 12.4904 8.84005 12.5486 8.69967C12.6067 8.55929 12.6219 8.40481 12.5923 8.25578C12.5626 8.10675 12.4895 7.96985 12.382 7.86241C12.2746 7.75496 12.1377 7.68179 11.9887 7.65215C11.8396 7.6225 11.6851 7.63772 11.5448 7.69587C11.4044 7.75402 11.2844 7.85249 11.2 7.97883C11.1156 8.10517 11.0705 8.25371 11.0705 8.40566C11.0707 8.60935 11.1517 8.80463 11.2958 8.94866C11.4398 9.09269 11.6351 9.17371 11.8388 9.17394ZM11.8388 8.02152C11.9147 8.02152 11.989 8.04405 12.0522 8.08626C12.1154 8.12847 12.1646 8.18847 12.1937 8.25866C12.2227 8.32885 12.2303 8.40609 12.2155 8.4806C12.2007 8.55512 12.1641 8.62357 12.1104 8.67729C12.0567 8.73101 11.9882 8.7676 11.9137 8.78242C11.8392 8.79724 11.762 8.78963 11.6918 8.76056C11.6216 8.73149 11.5616 8.68225 11.5194 8.61908C11.4772 8.55591 11.4546 8.48164 11.4546 8.40566C11.4547 8.30381 11.4952 8.20616 11.5673 8.13415C11.6393 8.06213 11.7369 8.02162 11.8388 8.02152ZM36.1676 8.59718C36.0662 8.59718 35.9672 8.62722 35.883 8.6835C35.7988 8.73977 35.7331 8.81977 35.6944 8.91336C35.6556 9.00695 35.6454 9.10993 35.6652 9.20928C35.685 9.30864 35.7338 9.3999 35.8054 9.47153C35.877 9.54316 35.9683 9.59194 36.0676 9.6117C36.167 9.63147 36.27 9.62132 36.3636 9.58256C36.4571 9.54379 36.5371 9.47814 36.5934 9.39392C36.6497 9.30969 36.6797 9.21066 36.6797 9.10936C36.6796 8.97357 36.6256 8.84338 36.5295 8.74736C36.4335 8.65134 36.3033 8.59733 36.1676 8.59718ZM36.1676 9.36545C36.1169 9.36545 36.0674 9.35043 36.0253 9.32229C35.9832 9.29415 35.9503 9.25416 35.931 9.20736C35.9116 9.16057 35.9065 9.10908 35.9164 9.0594C35.9263 9.00972 35.9507 8.96409 35.9865 8.92828C36.0223 8.89246 36.0679 8.86807 36.1176 8.85819C36.1673 8.84831 36.2188 8.85338 36.2656 8.87276C36.3124 8.89215 36.3523 8.92497 36.3805 8.96708C36.4086 9.0092 36.4236 9.05871 36.4236 9.10936C36.4236 9.17726 36.3966 9.24236 36.3486 9.29037C36.3006 9.33838 36.2355 9.36539 36.1676 9.36545ZM4.41209 2.4711C4.31079 2.4711 4.21176 2.50114 4.12753 2.55742C4.0433 2.6137 3.97766 2.69369 3.93889 2.78728C3.90012 2.88087 3.88998 2.98386 3.90974 3.08321C3.92951 3.18256 3.97829 3.27383 4.04992 3.34546C4.12155 3.41709 4.21281 3.46587 4.31217 3.48563C4.41152 3.50539 4.5145 3.49525 4.60809 3.45648C4.70168 3.41772 4.78167 3.35207 4.83795 3.26784C4.89423 3.18361 4.92427 3.08459 4.92427 2.98329C4.92412 2.84749 4.87011 2.71731 4.77409 2.62129C4.67807 2.52527 4.54788 2.47126 4.41209 2.4711ZM4.41209 3.23938C4.36144 3.23938 4.31192 3.22436 4.26981 3.19622C4.2277 3.16808 4.19487 3.12808 4.17549 3.08129C4.15611 3.03449 4.15103 2.983 4.16092 2.93333C4.1708 2.88365 4.19519 2.83802 4.231 2.8022C4.26682 2.76639 4.31245 2.742 4.36213 2.73212C4.4118 2.72223 4.4633 2.72731 4.51009 2.74669C4.55688 2.76607 4.59688 2.7989 4.62502 2.84101C4.65316 2.88312 4.66818 2.93264 4.66818 2.98329C4.66811 3.05119 4.64111 3.11628 4.5931 3.1643C4.54509 3.21231 4.47999 3.23931 4.41209 3.23938ZM41.1113 1.87781C41.01 1.87781 40.911 1.90785 40.8268 1.96413C40.7426 2.02041 40.6769 2.1004 40.6381 2.19399C40.5994 2.28758 40.5892 2.39056 40.609 2.48991C40.6288 2.58927 40.6775 2.68053 40.7492 2.75216C40.8208 2.82379 40.9121 2.87257 41.0114 2.89234C41.1108 2.9121 41.2138 2.90196 41.3074 2.86319C41.4009 2.82442 41.4809 2.75878 41.5372 2.67455C41.5935 2.59032 41.6235 2.49129 41.6235 2.38999C41.6234 2.2542 41.5694 2.12401 41.4733 2.02799C41.3773 1.93197 41.2471 1.87796 41.1113 1.87781ZM41.1113 2.64608C41.0607 2.64608 41.0112 2.63107 40.9691 2.60293C40.927 2.57479 40.8941 2.53479 40.8747 2.48799C40.8554 2.4412 40.8503 2.38971 40.8602 2.34003C40.8701 2.29035 40.8944 2.24472 40.9303 2.20891C40.9661 2.17309 41.0117 2.1487 41.0614 2.13882C41.1111 2.12894 41.1626 2.13401 41.2093 2.15339C41.2561 2.17278 41.2961 2.2056 41.3243 2.24772C41.3524 2.28983 41.3674 2.33934 41.3674 2.38999C41.3674 2.45789 41.3404 2.52299 41.2924 2.571C41.2443 2.61901 41.1792 2.64602 41.1113 2.64608ZM25.911 7.52105C25.911 7.41975 25.881 7.32072 25.8247 7.23649C25.7684 7.15226 25.6885 7.08662 25.5949 7.04785C25.5013 7.00908 25.3983 6.99894 25.2989 7.0187C25.1996 7.03847 25.1083 7.08725 25.0367 7.15888C24.9651 7.23051 24.9163 7.32177 24.8965 7.42113C24.8768 7.52048 24.8869 7.62346 24.9257 7.71705C24.9644 7.81064 25.0301 7.89063 25.1143 7.94691C25.1985 8.00319 25.2976 8.03323 25.3989 8.03323C25.5347 8.03308 25.6648 7.97906 25.7609 7.88305C25.8569 7.78703 25.9109 7.65684 25.911 7.52105ZM25.1428 7.52105C25.1428 7.4704 25.1578 7.42088 25.1859 7.37877C25.2141 7.33666 25.2541 7.30383 25.3009 7.28445C25.3477 7.26507 25.3991 7.25999 25.4488 7.26988C25.4985 7.27976 25.5441 7.30415 25.5799 7.33996C25.6158 7.37578 25.6402 7.42141 25.65 7.47109C25.6599 7.52076 25.6548 7.57226 25.6355 7.61905C25.6161 7.66584 25.5833 7.70584 25.5411 7.73398C25.499 7.76212 25.4495 7.77714 25.3989 7.77714C25.331 7.77707 25.2659 7.75007 25.2179 7.70206C25.1698 7.65405 25.1428 7.58895 25.1428 7.52105Z" fill="#2D4356"/>
<path id="Vector_2" d="M3.35872 16.9902L3.73953 16.4893L3.49906 16.353L3.25449 16.9139H3.24655L2.99814 16.3571L2.75357 16.4972L3.13028 16.9861V16.9943L2.54102 16.918V17.1904L3.13413 17.1144V17.1223L2.75357 17.6112L2.98175 17.7554L3.24245 17.1904H3.25039L3.49086 17.7513L3.74337 17.6071L3.35872 17.1264V17.1182L3.96361 17.1904V16.918L3.35872 16.9981V16.9902Z" fill="#0BCEB2"/>
<path id="Vector_3" d="M31.2335 2.17326L31.0142 2.45471L31.1459 2.53768L31.2959 2.21245H31.3006L31.4388 2.53538L31.5843 2.45241L31.3628 2.17531V2.1707L31.7111 2.21245V2.05546L31.3628 2.10156V2.09695L31.582 1.80859L31.4437 1.73022L31.3029 2.05316H31.2983L31.1554 1.73227L31.0142 1.8132L31.2314 2.09464V2.09925L30.8921 2.05546V2.21245L31.2335 2.16865V2.17326Z" fill="#0BCEB2"/>
<path id="Vector_4" d="M41.2966 16.7639V16.4966L40.7032 16.5752V16.5672L41.0766 16.0761L40.8407 15.9424L40.601 16.4925H40.5931L40.3495 15.9462L40.1096 16.084L40.4791 16.5634V16.5713L39.9014 16.4966V16.7639L40.483 16.6891V16.6971L40.1096 17.1765L40.3337 17.3181L40.5892 16.7639H40.5969L40.8328 17.314L41.0804 17.1727L40.7032 16.7009V16.693L41.2966 16.7639Z" fill="#0BCEB2"/>
<path id="Vector_5" d="M19.8318 2.33569L20.154 1.91212L19.9507 1.79688L19.7437 2.27141H19.7368L19.5268 1.8002L19.3199 1.91877L19.6387 2.33236V2.33928L19.1401 2.27474V2.50523L19.6421 2.44095V2.44761L19.3199 2.8612L19.513 2.98335L19.7338 2.50523H19.7402L19.9438 2.98002L20.1573 2.85787L19.8318 2.45094V2.44428L20.3438 2.50523V2.27474L19.8318 2.34261V2.33569Z" fill="#0BCEB2"/>
<path id="Vector_6" d="M30.8292 39.7795H28.7016C28.5729 39.7899 28.4527 39.8483 28.3651 39.9432C28.2775 40.0381 28.2288 40.1626 28.2288 40.2917C28.2288 40.4209 28.2775 40.5453 28.3651 40.6402C28.4527 40.7352 28.5729 40.7936 28.7016 40.8039H30.8292C30.9579 40.7936 31.0781 40.7352 31.1657 40.6402C31.2533 40.5453 31.302 40.4209 31.302 40.2917C31.302 40.1626 31.2533 40.0381 31.1657 39.9432C31.0781 39.8483 30.9579 39.7899 30.8292 39.7795ZM15.4636 39.7795H13.3361C13.2073 39.7899 13.0872 39.8483 12.9995 39.9432C12.9119 40.0381 12.8633 40.1626 12.8633 40.2917C12.8633 40.4209 12.9119 40.5453 12.9995 40.6402C13.0872 40.7352 13.2073 40.7936 13.3361 40.8039H15.4636C15.5924 40.7936 15.7125 40.7352 15.8001 40.6402C15.8878 40.5453 15.9364 40.4209 15.9364 40.2917C15.9364 40.1626 15.8878 40.0381 15.8001 39.9432C15.7125 39.8483 15.5924 39.7899 15.4636 39.7795ZM27.2045 39.7795H16.9608C16.8249 39.7795 16.6947 39.8335 16.5986 39.9296C16.5025 40.0256 16.4486 40.1559 16.4486 40.2917C16.4486 40.4276 16.5025 40.5578 16.5986 40.6539C16.6947 40.7499 16.8249 40.8039 16.9608 40.8039H21.0429V41.3161H19.0095C18.8737 41.3161 18.7434 41.3701 18.6473 41.4661C18.5513 41.5622 18.4973 41.6924 18.4973 41.8283C18.4973 41.9641 18.5513 42.0944 18.6473 42.1905C18.7434 42.2865 18.8737 42.3405 19.0095 42.3405H25.4118C25.5477 42.3405 25.6779 42.2865 25.774 42.1905C25.87 42.0944 25.924 41.9641 25.924 41.8283C25.924 41.6924 25.87 41.5622 25.774 41.4661C25.6779 41.3701 25.5477 41.3161 25.4118 41.3161H23.1223V40.8039H27.2045C27.3403 40.8039 27.4706 40.7499 27.5666 40.6539C27.6627 40.5578 27.7166 40.4276 27.7166 40.2917C27.7166 40.1559 27.6627 40.0256 27.5666 39.9296C27.4706 39.8335 27.3403 39.7795 27.2045 39.7795Z" fill="#0BCEB2"/>
<path id="Vector_7" d="M29.7065 26.2081C29.6896 26.0967 29.6864 25.9837 29.697 25.8715C29.7564 25.5617 29.7019 25.2409 29.5436 24.9681C29.3853 24.6953 29.1338 24.4889 28.8354 24.3867C28.7354 24.3411 28.6412 24.2836 28.5548 24.2155C28.4867 24.1292 28.4291 24.035 28.3835 23.9349C28.2814 23.6365 28.075 23.385 27.8023 23.2267C27.5295 23.0684 27.2087 23.0139 26.899 23.0734C26.7867 23.0837 26.6736 23.0805 26.5621 23.0637C26.4636 23.0237 26.3701 22.9725 26.2835 22.9109C26.0414 22.701 25.7316 22.5854 25.4112 22.5854C25.0907 22.5854 24.781 22.701 24.5389 22.9109C24.4522 22.9725 24.3587 23.0237 24.2603 23.0637C24.1489 23.0803 24.036 23.0834 23.9239 23.0733C23.6141 23.0139 23.2933 23.0683 23.0204 23.2266C22.7476 23.3849 22.5411 23.6364 22.4388 23.9348C22.3932 24.0349 22.3357 24.1291 22.2675 24.2154C22.1812 24.2835 22.087 24.3409 21.9869 24.3866C21.6885 24.4889 21.4371 24.6954 21.2788 24.9683C21.1205 25.2411 21.066 25.562 21.1254 25.8718C21.1358 25.9838 21.1327 26.0968 21.1161 26.2081C21.076 26.3065 21.0247 26.4 20.9633 26.4867C20.7533 26.7288 20.6377 27.0386 20.6377 27.359C20.6377 27.6795 20.7533 27.9893 20.9633 28.2314C21.0248 28.318 21.0759 28.4115 21.1159 28.51C21.1327 28.6214 21.1359 28.7344 21.1254 28.8466C21.066 29.1563 21.1204 29.4771 21.2787 29.75C21.437 30.0228 21.6885 30.2292 21.9869 30.3314C22.087 30.377 22.1812 30.4345 22.2675 30.5027C22.3357 30.589 22.3932 30.6832 22.4388 30.7833C22.5391 31.0003 22.6786 31.197 22.8502 31.3634V35.0418C22.8503 35.1385 22.8777 35.2333 22.9293 35.315C22.9809 35.3968 23.0546 35.4623 23.1418 35.504C23.2291 35.5456 23.3264 35.5617 23.4224 35.5504C23.5185 35.5391 23.6094 35.5008 23.6845 35.44L25.4112 34.0435L27.1378 35.44C27.213 35.5008 27.3039 35.5391 27.3999 35.5504C27.4959 35.5617 27.5932 35.5457 27.6805 35.504C27.7678 35.4623 27.8415 35.3968 27.8931 35.315C27.9447 35.2333 27.9721 35.1385 27.9721 35.0418V31.3635C28.1438 31.1971 28.2832 31.0004 28.3835 30.7833C28.4175 30.6775 28.4762 30.5813 28.5548 30.5027C28.6334 30.4241 28.7296 30.3654 28.8354 30.3314C29.1338 30.2291 29.3852 30.0226 29.5435 29.7497C29.7018 29.4769 29.7563 29.1561 29.697 28.8463C29.6865 28.7342 29.6896 28.6213 29.7062 28.51C29.7463 28.4116 29.7976 28.3181 29.859 28.2314C30.069 27.9893 30.1846 27.6795 30.1846 27.359C30.1846 27.0386 30.069 26.7288 29.859 26.4867C29.7976 26.4001 29.7464 26.3066 29.7065 26.2081ZM26.9477 33.9687L25.7333 32.9866C25.6421 32.9128 25.5284 32.8725 25.4112 32.8725C25.2939 32.8725 25.1802 32.9128 25.0891 32.9866L23.8746 33.9687V31.6466C23.891 31.646 23.9079 31.6454 23.9239 31.6448C24.036 31.6343 24.1489 31.6374 24.2603 31.6541C24.3587 31.6942 24.4521 31.7455 24.5389 31.8069C24.781 32.0169 25.0907 32.1325 25.4112 32.1325C25.7317 32.1325 26.0414 32.0169 26.2835 31.8069C26.3701 31.7455 26.4636 31.6943 26.5621 31.6544C26.6735 31.6372 26.7865 31.6341 26.8987 31.6448C26.9146 31.6455 26.9314 31.6461 26.9477 31.6467V33.9687ZM28.995 27.6812C28.8736 27.8538 28.7797 28.0441 28.7166 28.2454C28.6693 28.456 28.6547 28.6727 28.6733 28.8879C28.6859 29.0033 28.6809 29.12 28.6586 29.234C28.5699 29.3121 28.4697 29.3759 28.3615 29.4233C27.9605 29.5899 27.6419 29.9085 27.4752 30.3094C27.428 30.4178 27.364 30.5182 27.2856 30.6067C27.1719 30.629 27.0554 30.6339 26.9402 30.6212C26.725 30.6026 26.5082 30.6173 26.2975 30.6648C26.0962 30.7277 25.9058 30.8215 25.7333 30.9429C25.6362 31.0161 25.5273 31.072 25.4112 31.1081C25.2951 31.072 25.1861 31.0161 25.0891 30.9428C24.9165 30.8215 24.7262 30.7276 24.5249 30.6645C24.3849 30.6295 24.2409 30.613 24.0967 30.6155C24.0227 30.6155 23.9509 30.6185 23.8824 30.6212C23.7669 30.6338 23.6502 30.6288 23.5362 30.6065C23.4582 30.5178 23.3943 30.4176 23.3469 30.3094C23.1803 29.9084 22.8617 29.5898 22.4608 29.423C22.3524 29.3759 22.252 29.3119 22.1635 29.2335C22.1414 29.1197 22.1365 29.0033 22.149 28.8881C22.1677 28.6729 22.153 28.4561 22.1055 28.2454C22.0425 28.044 21.9487 27.8537 21.8274 27.6812C21.7541 27.5841 21.6982 27.4751 21.6621 27.359C21.6982 27.243 21.7541 27.134 21.8274 27.0369C21.9487 26.8643 22.0426 26.674 22.1057 26.4727C22.1531 26.2621 22.1677 26.0454 22.149 25.8302C22.1364 25.7148 22.1414 25.5981 22.1637 25.4841C22.2524 25.406 22.3526 25.3422 22.4609 25.2948C22.8618 25.1283 23.1804 24.8097 23.3469 24.4087C23.3943 24.3003 23.4584 24.1999 23.5367 24.1112C23.6506 24.0892 23.7671 24.0843 23.8824 24.0967C24.0975 24.1153 24.3142 24.1007 24.5249 24.0533C24.7262 23.9904 24.9166 23.8965 25.0891 23.775C25.1862 23.7019 25.2951 23.646 25.4112 23.6098C25.5272 23.646 25.6362 23.7019 25.7333 23.775C25.9058 23.8965 26.0961 23.9904 26.2975 24.0533C26.5082 24.1007 26.725 24.1154 26.9402 24.0969C27.0555 24.0847 27.172 24.0896 27.2858 24.1114C27.3641 24.1999 27.428 24.3002 27.4752 24.4086C27.6418 24.8097 27.9606 25.1285 28.3617 25.295C28.4701 25.3422 28.5704 25.4062 28.6588 25.4846C28.6809 25.5984 28.6858 25.7148 28.6734 25.83C28.6546 26.0452 28.6693 26.262 28.7169 26.4727C28.7798 26.674 28.8736 26.8644 28.995 27.0369C29.0682 27.134 29.1241 27.243 29.1603 27.359C29.1241 27.4751 29.0682 27.5841 28.995 27.6812Z" fill="#2D4356"/>
<path id="Vector_8" d="M25.4115 24.7981C24.905 24.7981 24.4099 24.9483 23.9887 25.2297C23.5676 25.5111 23.2394 25.9111 23.0455 26.379C22.8517 26.8469 22.801 27.3619 22.8998 27.8586C22.9986 28.3554 23.2425 28.8117 23.6007 29.1699C23.9588 29.528 24.4151 29.7719 24.9119 29.8707C25.4087 29.9696 25.9236 29.9188 26.3915 29.725C26.8595 29.5312 27.2594 29.2029 27.5408 28.7818C27.8222 28.3607 27.9724 27.8655 27.9724 27.359C27.9716 26.6801 27.7016 26.0291 27.2215 25.5491C26.7414 25.069 26.0905 24.7989 25.4115 24.7981ZM25.4115 28.8956C25.1076 28.8956 24.8105 28.8055 24.5578 28.6366C24.3052 28.4678 24.1082 28.2278 23.9919 27.947C23.8756 27.6663 23.8452 27.3573 23.9045 27.0593C23.9638 26.7612 24.1101 26.4874 24.325 26.2725C24.5399 26.0576 24.8137 25.9113 25.1117 25.852C25.4098 25.7927 25.7188 25.8231 25.9995 25.9394C26.2803 26.0557 26.5203 26.2527 26.6891 26.5054C26.8579 26.758 26.9481 27.0551 26.9481 27.359C26.9476 27.7664 26.7856 28.157 26.4975 28.445C26.2095 28.7331 25.8189 28.8951 25.4115 28.8956Z" fill="#0BCEB2"/>
<path id="Vector_9" d="M1.08299 38.7551C1.36586 38.7551 1.59517 38.5258 1.59517 38.2429C1.59517 37.96 1.36586 37.7307 1.08299 37.7307C0.800114 37.7307 0.570801 37.96 0.570801 38.2429C0.570801 38.5258 0.800114 38.7551 1.08299 38.7551Z" fill="#2D4356"/>
<path id="Vector_10" d="M3.38788 37.7307H2.61961C2.48377 37.7307 2.35349 37.7847 2.25744 37.8807C2.16138 37.9768 2.10742 38.1071 2.10742 38.2429C2.10742 38.3787 2.16138 38.509 2.25744 38.6051C2.35349 38.7011 2.48377 38.7551 2.61961 38.7551H3.38788C3.52372 38.7551 3.654 38.7011 3.75005 38.6051C3.84611 38.509 3.90007 38.3787 3.90007 38.2429C3.90007 38.1071 3.84611 37.9768 3.75005 37.8807C3.654 37.7847 3.52372 37.7307 3.38788 37.7307ZM41.5457 37.7307H40.7774C40.6415 37.7307 40.5113 37.7847 40.4152 37.8807C40.3192 37.9768 40.2652 38.1071 40.2652 38.2429C40.2652 38.3787 40.3192 38.509 40.4152 38.6051C40.5113 38.7011 40.6415 38.7551 40.7774 38.7551H41.5457C41.6815 38.7551 41.8118 38.7011 41.9078 38.6051C42.0039 38.509 42.0578 38.3787 42.0578 38.2429C42.0578 38.1071 42.0039 37.9768 41.9078 37.8807C41.8118 37.7847 41.6815 37.7307 41.5457 37.7307Z" fill="#2D4356"/>
<path id="Vector_11" d="M43.082 38.7551C43.3649 38.7551 43.5942 38.5258 43.5942 38.2429C43.5942 37.96 43.3649 37.7307 43.082 37.7307C42.7991 37.7307 42.5698 37.96 42.5698 38.2429C42.5698 38.5258 42.7991 38.7551 43.082 38.7551Z" fill="#2D4356"/>
<path id="Vector_12" d="M39.1685 37.7308H37.1915V20.8287H37.9597C38.0955 20.8283 38.2255 20.7742 38.3215 20.6782C38.4174 20.5823 38.4715 20.4522 38.4719 20.3165V15.6915C38.4671 15.591 38.4337 15.494 38.3757 15.4119C38.3176 15.3297 38.2373 15.2659 38.1441 15.2279L27.5598 11.1305C27.5006 11.1093 27.4383 11.098 27.3754 11.0972H6.20428C6.06967 11.101 5.94162 11.1562 5.8464 11.2515C5.75117 11.3467 5.69597 11.4747 5.6921 11.6094V15.8349C5.69248 15.9218 5.71472 16.0073 5.75679 16.0833C5.79886 16.1594 5.8594 16.2237 5.93283 16.2702L6.71647 16.7594V34.7857C6.71825 34.8806 6.74559 34.9733 6.79562 35.054C6.84564 35.1347 6.9165 35.2003 7.00073 35.2441L11.974 37.7308H4.99553C4.92263 37.7212 4.84853 37.7273 4.77817 37.7486C4.70782 37.77 4.64283 37.8061 4.58756 37.8546C4.53228 37.9031 4.488 37.9628 4.45766 38.0298C4.42732 38.0968 4.41162 38.1694 4.41162 38.243C4.41162 38.3165 4.42732 38.3892 4.45766 38.4561C4.488 38.5231 4.53228 38.5828 4.58756 38.6313C4.64283 38.6798 4.70782 38.7159 4.77817 38.7373C4.84853 38.7586 4.92263 38.7647 4.99553 38.7551H39.1685C39.2414 38.7647 39.3155 38.7586 39.3859 38.7373C39.4562 38.7159 39.5212 38.6798 39.5765 38.6313C39.6317 38.5828 39.676 38.5231 39.7064 38.4561C39.7367 38.3892 39.7524 38.3165 39.7524 38.243C39.7524 38.1694 39.7367 38.0968 39.7064 38.0298C39.676 37.9628 39.6317 37.9031 39.5765 37.8546C39.5212 37.8061 39.4562 37.77 39.3859 37.7486C39.3155 37.7273 39.2414 37.7212 39.1685 37.7308ZM27.2781 12.1215L35.217 15.1946H27.4651L22.0769 12.1215H27.2781ZM20.0102 12.1215L25.3984 15.1946H21.2087L15.818 12.1215H20.0102ZM13.7513 12.1215L19.1395 15.1946H13.5106L8.13266 12.1215H13.7513ZM6.71647 15.5506V12.4929L12.8627 16.0039V19.392L6.71647 15.5506ZM13.631 37.4132L7.74084 34.4682V17.3996L13.1034 20.7519C13.1854 20.8012 13.2792 20.8277 13.3749 20.8287H13.631V37.4132ZM13.8871 16.219H37.4476V19.8043H13.8871V16.219ZM36.1671 24.414H34.1184C33.9825 24.414 33.8522 24.4679 33.7562 24.564C33.6601 24.66 33.6062 24.7903 33.6062 24.9262C33.6062 25.062 33.6601 25.1923 33.7562 25.2883C33.8522 25.3844 33.9825 25.4383 34.1184 25.4383H36.1671V29.5358H34.1184C33.9825 29.5358 33.8522 29.5898 33.7562 29.6858C33.6601 29.7819 33.6062 29.9122 33.6062 30.048C33.6062 30.1839 33.6601 30.3141 33.7562 30.4102C33.8522 30.5062 33.9825 30.5602 34.1184 30.5602H36.1671V37.7308H14.6553V30.5602H16.7041C16.8399 30.5602 16.9702 30.5062 17.0662 30.4102C17.1623 30.3141 17.2163 30.1839 17.2163 30.048C17.2163 29.9122 17.1623 29.7819 17.0662 29.6858C16.9702 29.5898 16.8399 29.5358 16.7041 29.5358H14.6553V25.4383H16.7041C16.8399 25.4383 16.9702 25.3844 17.0662 25.2883C17.1623 25.1923 17.2163 25.062 17.2163 24.9262C17.2163 24.7903 17.1623 24.66 17.0662 24.564C16.9702 24.4679 16.8399 24.414 16.7041 24.414H14.6553V20.8287H36.1671V24.414Z" fill="#2D4356"/>
<path id="Vector_13" d="M37.448 17.4995V18.5239H26.1799C26.0441 18.5239 25.9138 18.4699 25.8178 18.3739C25.7217 18.2778 25.6677 18.1475 25.6677 18.0117C25.6677 17.8759 25.7217 17.7456 25.8178 17.6495C25.9138 17.5535 26.0441 17.4995 26.1799 17.4995H37.448ZM18.2411 27.4871C18.2407 27.6228 18.1866 27.7529 18.0906 27.8488C17.9946 27.9448 17.8646 27.9989 17.7289 27.9993H14.6558V26.9749H17.7289C17.8646 26.9753 17.9946 27.0294 18.0906 27.1254C18.1866 27.2214 18.2407 27.3514 18.2411 27.4871ZM36.1675 26.9749V27.9993H33.0944C32.9586 27.9993 32.8283 27.9453 32.7322 27.8493C32.6362 27.7532 32.5822 27.623 32.5822 27.4871C32.5822 27.3513 32.6362 27.221 32.7322 27.1249C32.8283 27.0289 32.9586 26.9749 33.0944 26.9749H36.1675Z" fill="#0BCEB2"/>
</g>
<defs>
<clipPath id="clip0_586_751">
<rect width="43.0235" height="43.0235" fill="white" transform="translate(0.570801 0.52356)"/>
</clipPath>
</defs>
</svg>
