<svg width="45" height="45" viewBox="0 0 45 45" fill="none" xmlns="http://www.w3.org/2000/svg">
<g id="goodness 1" clip-path="url(#clip0_584_605)">
<path id="Vector" d="M31.2925 41.1188H29.1187C28.9871 41.1293 28.8644 41.189 28.7748 41.286C28.6853 41.383 28.6356 41.5101 28.6356 41.6421C28.6356 41.7741 28.6853 41.9012 28.7748 41.9982C28.8644 42.0952 28.9871 42.1549 29.1187 42.1654H31.2925C31.424 42.1549 31.5468 42.0952 31.6363 41.9982C31.7258 41.9012 31.7755 41.7741 31.7755 41.6421C31.7755 41.5101 31.7258 41.383 31.6363 41.286C31.5468 41.189 31.424 41.1293 31.2925 41.1188ZM15.5929 41.1188H13.4191C13.2875 41.1293 13.1648 41.189 13.0753 41.286C12.9857 41.383 12.936 41.5101 12.936 41.6421C12.936 41.7741 12.9857 41.9012 13.0753 41.9982C13.1648 42.0952 13.2875 42.1549 13.4191 42.1654H15.5929C15.7245 42.1549 15.8472 42.0952 15.9367 41.9982C16.0263 41.9012 16.076 41.7741 16.076 41.6421C16.076 41.5101 16.0263 41.383 15.9367 41.286C15.8472 41.189 15.7245 41.1293 15.5929 41.1188ZM27.589 41.1188H17.1226C16.9838 41.1188 16.8507 41.1739 16.7526 41.2721C16.6544 41.3702 16.5993 41.5033 16.5993 41.6421C16.5993 41.7809 16.6544 41.914 16.7526 42.0121C16.8507 42.1103 16.9838 42.1654 17.1226 42.1654H21.2935V42.6887H19.2159C19.0771 42.6887 18.944 42.7439 18.8458 42.842C18.7477 42.9402 18.6926 43.0733 18.6926 43.2121C18.6926 43.3508 18.7477 43.484 18.8458 43.5821C18.944 43.6802 19.0771 43.7354 19.2159 43.7354H25.7574C25.8962 43.7354 26.0293 43.6802 26.1274 43.5821C26.2255 43.484 26.2807 43.3508 26.2807 43.2121C26.2807 43.0733 26.2255 42.9402 26.1274 42.842C26.0293 42.7439 25.8962 42.6887 25.7574 42.6887H23.4181V42.1654H27.589C27.7278 42.1654 27.8609 42.1103 27.959 42.0121C28.0572 41.914 28.1123 41.7809 28.1123 41.6421C28.1123 41.5033 28.0572 41.3702 27.959 41.2721C27.8609 41.1739 27.7278 41.1188 27.589 41.1188Z" fill="#0BCEB2"/>
<path id="Vector_2" d="M38.5785 16.522C38.8675 16.522 39.1018 16.2877 39.1018 15.9987C39.1018 15.7096 38.8675 15.4753 38.5785 15.4753C38.2895 15.4753 38.0552 15.7096 38.0552 15.9987C38.0552 16.2877 38.2895 16.522 38.5785 16.522Z" fill="#2D4356"/>
<path id="Vector_3" d="M35.962 20.1849C36.2725 20.1848 36.576 20.0927 36.8342 19.9202C37.0923 19.7477 37.2935 19.5025 37.4123 19.2157C37.5311 18.9288 37.5622 18.6132 37.5016 18.3087C37.441 18.0042 37.2915 17.7245 37.0719 17.5049C36.8524 17.2854 36.5727 17.1359 36.2682 17.0753C35.9636 17.0148 35.648 17.0459 35.3612 17.1647C35.0743 17.2835 34.8291 17.4847 34.6567 17.7429C34.4842 18.001 34.3921 18.3045 34.3921 18.615C34.3926 19.0312 34.5581 19.4303 34.8524 19.7246C35.1468 20.0189 35.5458 20.1844 35.962 20.1849ZM35.962 18.0917C36.0655 18.0917 36.1667 18.1224 36.2528 18.1799C36.3388 18.2375 36.4059 18.3192 36.4455 18.4148C36.4851 18.5104 36.4954 18.6156 36.4752 18.7171C36.455 18.8187 36.4052 18.9119 36.332 18.9851C36.2588 19.0582 36.1656 19.1081 36.0641 19.1283C35.9626 19.1485 35.8574 19.1381 35.7617 19.0985C35.6661 19.0589 35.5844 18.9918 35.5269 18.9057C35.4694 18.8197 35.4387 18.7185 35.4387 18.615C35.4389 18.4763 35.4941 18.3433 35.5922 18.2452C35.6903 18.1471 35.8233 18.0919 35.962 18.0917Z" fill="#0BCEB2"/>
<path id="Vector_4" d="M6.13318 16.522C6.4222 16.522 6.6565 16.2877 6.6565 15.9987C6.6565 15.7096 6.4222 15.4753 6.13318 15.4753C5.84416 15.4753 5.60986 15.7096 5.60986 15.9987C5.60986 16.2877 5.84416 16.522 6.13318 16.522Z" fill="#2D4356"/>
<path id="Vector_5" d="M8.74965 20.1849C9.06013 20.1848 9.36363 20.0927 9.62177 19.9202C9.87992 19.7477 10.0811 19.5025 10.1999 19.2157C10.3187 18.9288 10.3498 18.6132 10.2892 18.3087C10.2286 18.0042 10.0791 17.7245 9.85955 17.5049C9.64 17.2854 9.36028 17.1359 9.05576 17.0753C8.75125 17.0148 8.43561 17.0459 8.14876 17.1647C7.86192 17.2835 7.61675 17.4847 7.44425 17.7429C7.27176 18.001 7.17969 18.3045 7.17969 18.615C7.18016 19.0312 7.34572 19.4303 7.64004 19.7246C7.93437 20.0189 8.33342 20.1844 8.74965 20.1849ZM8.74965 18.0917C8.85314 18.0917 8.95431 18.1224 9.04036 18.1799C9.12641 18.2375 9.19348 18.3192 9.23308 18.4148C9.27268 18.5104 9.28304 18.6156 9.26284 18.7171C9.24264 18.8187 9.1928 18.9119 9.11961 18.9851C9.04643 19.0582 8.95318 19.1081 8.85167 19.1283C8.75016 19.1485 8.64495 19.1381 8.54933 19.0985C8.45372 19.0589 8.37199 18.9918 8.3145 18.9057C8.257 18.8197 8.22632 18.7185 8.22633 18.615C8.22649 18.4763 8.28168 18.3433 8.37979 18.2452C8.4779 18.1471 8.61091 18.0919 8.74965 18.0917Z" fill="#0BCEB2"/>
<path id="Vector_6" d="M22.4054 9.25219C22.5441 9.25219 22.6772 9.19705 22.7754 9.09892C22.8735 9.00079 22.9287 8.86768 22.9287 8.7289V6.84119C22.9287 6.7024 22.8735 6.56929 22.7754 6.47115C22.6773 6.37301 22.5441 6.31787 22.4054 6.31787C22.2666 6.31787 22.1335 6.37301 22.0353 6.47115C21.9372 6.56929 21.882 6.7024 21.882 6.84119V8.7289C21.882 8.86768 21.9372 9.00079 22.0353 9.09892C22.1335 9.19705 22.2666 9.25219 22.4054 9.25219ZM16.6606 11.2278C16.7104 11.2751 16.769 11.3122 16.8331 11.3369C16.8973 11.3616 16.9656 11.3734 17.0343 11.3716C17.103 11.3699 17.1707 11.3547 17.2335 11.3268C17.2963 11.2989 17.353 11.2589 17.4003 11.2091C17.4477 11.1593 17.4847 11.1007 17.5094 11.0366C17.5341 10.9725 17.5459 10.9041 17.5442 10.8354C17.5425 10.7667 17.5272 10.6991 17.4993 10.6363C17.4715 10.5735 17.4315 10.5168 17.3817 10.4694L15.9774 9.13439C15.9277 9.08696 15.869 9.0498 15.8049 9.02505C15.7407 9.00029 15.6723 8.98843 15.6036 8.99012C15.5349 8.99182 15.4671 9.00705 15.4043 9.03493C15.3414 9.06282 15.2847 9.10282 15.2373 9.15265C15.1899 9.20248 15.1528 9.26116 15.1282 9.32533C15.1035 9.38951 15.0917 9.45792 15.0934 9.52665C15.0952 9.59539 15.1105 9.6631 15.1385 9.72592C15.1664 9.78874 15.2065 9.84543 15.2563 9.89276L16.6606 11.2278ZM27.7894 11.3716C27.9236 11.3718 28.0526 11.3202 28.1497 11.2278L29.5546 9.89302C29.655 9.79737 29.7134 9.66579 29.7169 9.52716C29.7203 9.38853 29.6686 9.25419 29.5731 9.15365C29.4776 9.0531 29.3461 8.99457 29.2075 8.99092C29.0689 8.98726 28.9345 9.03877 28.8338 9.13413L27.4289 10.4689C27.353 10.541 27.3005 10.6342 27.2781 10.7364C27.2557 10.8386 27.2645 10.9452 27.3033 11.0424C27.3421 11.1396 27.4092 11.223 27.4959 11.2816C27.5825 11.3403 27.6848 11.3717 27.7894 11.3716Z" fill="#2D4356"/>
<path id="Vector_7" d="M19.0134 9.48749C19.0407 9.55079 19.0801 9.6081 19.1295 9.65611C19.179 9.70413 19.2374 9.74191 19.3014 9.7673C19.3655 9.79268 19.4339 9.80516 19.5028 9.80402C19.5717 9.80288 19.6397 9.78814 19.7029 9.76066C19.7661 9.73317 19.8233 9.69348 19.8711 9.64385C19.9189 9.59423 19.9564 9.53565 19.9815 9.47148C20.0066 9.40731 20.0188 9.33881 20.0174 9.26992C20.016 9.20102 20.001 9.13309 19.9732 9.07002L19.2138 7.32515C19.1865 7.26185 19.1471 7.20454 19.0977 7.15652C19.0482 7.1085 18.9898 7.07072 18.9258 7.04534C18.8617 7.01996 18.7933 7.00748 18.7244 7.00862C18.6555 7.00976 18.5875 7.02449 18.5243 7.05198C18.4611 7.07946 18.4039 7.11916 18.3561 7.16878C18.3083 7.21841 18.2708 7.27699 18.2457 7.34116C18.2206 7.40533 18.2084 7.47382 18.2098 7.54272C18.2112 7.61161 18.2262 7.67954 18.254 7.74262L19.0134 9.48749ZM25.1236 9.76448C25.1865 9.79224 25.2543 9.8073 25.323 9.80881C25.3918 9.81032 25.4601 9.79824 25.5242 9.77327C25.5883 9.74829 25.6468 9.71091 25.6963 9.66327C25.7459 9.61563 25.7856 9.55868 25.8131 9.49566L26.5777 7.75309C26.6332 7.62603 26.6361 7.4821 26.5856 7.35292C26.5351 7.22375 26.4354 7.1199 26.3084 7.06417C26.1814 7.00845 26.0375 7.00542 25.9083 7.05574C25.779 7.10607 25.6751 7.20563 25.6192 7.33256L24.8547 9.07513C24.827 9.13805 24.8121 9.20579 24.8107 9.27449C24.8092 9.34319 24.8214 9.4115 24.8463 9.47551C24.8713 9.53952 24.9086 9.59799 24.9562 9.64757C25.0038 9.69715 25.0607 9.73688 25.1236 9.76448ZM28.9355 13.35C28.961 13.4139 28.9988 13.4721 29.0468 13.5214C29.0948 13.5706 29.152 13.6099 29.2152 13.6369C29.2784 13.664 29.3464 13.6783 29.4151 13.6791C29.4839 13.6798 29.5521 13.667 29.6159 13.6413L31.4467 12.9085C31.5106 12.883 31.5688 12.8452 31.618 12.7972C31.6672 12.7492 31.7065 12.6919 31.7336 12.6288C31.7607 12.5656 31.7751 12.4977 31.7759 12.4289C31.7767 12.3602 31.764 12.2919 31.7385 12.2281C31.7129 12.1643 31.675 12.1061 31.627 12.057C31.5789 12.0078 31.5217 11.9685 31.4585 11.9415C31.3953 11.9145 31.3273 11.9002 31.2586 11.8994C31.1898 11.8986 31.1216 11.9114 31.0578 11.937L29.227 12.6698C29.0981 12.7214 28.9951 12.822 28.9404 12.9496C28.8858 13.0771 28.884 13.2212 28.9355 13.35ZM13.2777 13.1425L15.1289 13.8278C15.259 13.8757 15.4028 13.87 15.5287 13.8119C15.6546 13.7539 15.7524 13.6483 15.8005 13.5183C15.8486 13.3883 15.8432 13.2445 15.7854 13.1185C15.7276 12.9924 15.6222 12.8945 15.4923 12.8461L13.6411 12.1609C13.5109 12.1127 13.3669 12.1182 13.2408 12.1762C13.1147 12.2341 13.0168 12.3399 12.9686 12.47C12.9204 12.6002 12.9259 12.7442 12.9839 12.8703C13.0419 12.9964 13.1476 13.0944 13.2777 13.1425ZM22.3559 10.8652C20.9161 10.8575 19.5321 11.4212 18.5075 12.4326C17.4828 13.444 16.9012 14.8205 16.8901 16.2602C16.8901 16.399 16.9453 16.5321 17.0434 16.6303C17.1416 16.7284 17.2747 16.7835 17.4135 16.7835C17.5522 16.7835 17.6854 16.7284 17.7835 16.6303C17.8816 16.5321 17.9368 16.399 17.9368 16.2602C17.9554 15.1005 18.4292 13.9947 19.2559 13.1812C20.0827 12.3677 21.196 11.9117 22.3559 11.9117C23.5157 11.9117 24.6291 12.3677 25.4558 13.1812C26.2825 13.9947 26.7563 15.1005 26.7749 16.2602C26.7749 16.399 26.8301 16.5321 26.9282 16.6303C27.0264 16.7284 27.1595 16.7835 27.2983 16.7835C27.437 16.7835 27.5702 16.7284 27.6683 16.6303C27.7664 16.5321 27.8216 16.399 27.8216 16.2602C27.8105 14.8205 27.2289 13.444 26.2042 12.4326C25.1796 11.4212 23.7956 10.8575 22.3559 10.8652Z" fill="#0BCEB2"/>
<path id="Vector_8" d="M11.3061 37.9573C11.44 37.7013 11.3411 37.3853 11.0851 37.2514C10.8292 37.1174 10.5131 37.2164 10.3792 37.4723C10.2453 37.7283 10.3442 38.0444 10.6002 38.1783C10.8561 38.3122 11.1722 38.2133 11.3061 37.9573Z" fill="#2D4356"/>
<path id="Vector_9" d="M11.5246 36.3513C11.6488 36.4133 11.7925 36.4235 11.9242 36.3796C12.0558 36.3357 12.1647 36.2413 12.2268 36.1172L13.5351 33.5008C13.5967 33.3767 13.6067 33.2332 13.5627 33.1018C13.5187 32.9704 13.4244 32.8618 13.3004 32.7999C13.1765 32.7379 13.033 32.7276 12.9015 32.7713C12.77 32.8149 12.6611 32.9089 12.5989 33.0327L11.2906 35.6491C11.2285 35.7733 11.2183 35.917 11.2622 36.0486C11.3061 36.1803 11.4005 36.2892 11.5246 36.3513Z" fill="#0BCEB2"/>
<path id="Vector_10" d="M34.1115 38.1786C34.3676 38.0446 34.4666 37.7284 34.3326 37.4723C34.1986 37.2162 33.8823 37.1173 33.6263 37.2513C33.3702 37.3853 33.2712 37.7015 33.4052 37.9576C33.5392 38.2136 33.8555 38.3126 34.1115 38.1786Z" fill="#2D4356"/>
<path id="Vector_11" d="M33.4213 35.6491L32.113 33.0327C32.0507 32.9089 31.9418 32.8149 31.8103 32.7713C31.6788 32.7276 31.5353 32.7379 31.4114 32.7999C31.2875 32.8618 31.1931 32.9704 31.1492 33.1018C31.1052 33.2332 31.1151 33.3767 31.1767 33.5008L32.485 36.1172C32.5471 36.2413 32.6559 36.3358 32.7876 36.3797C32.9193 36.4236 33.063 36.4134 33.1872 36.3513C33.3113 36.2892 33.4057 36.1804 33.4496 36.0487C33.4935 35.917 33.4833 35.7733 33.4213 35.6491Z" fill="#0BCEB2"/>
<path id="Vector_12" d="M0.899784 40.0722C1.18881 40.0722 1.4231 39.8379 1.4231 39.5488C1.4231 39.2598 1.18881 39.0255 0.899784 39.0255C0.610763 39.0255 0.376465 39.2598 0.376465 39.5488C0.376465 39.8379 0.610763 40.0722 0.899784 40.0722Z" fill="#2D4356"/>
<path id="Vector_13" d="M3.25508 39.0254H2.4701C2.3313 39.0254 2.1982 39.0805 2.10005 39.1787C2.00191 39.2768 1.94678 39.4099 1.94678 39.5487C1.94678 39.6875 2.00191 39.8206 2.10005 39.9188C2.1982 40.0169 2.3313 40.072 2.4701 40.072H3.25508C3.39387 40.072 3.52698 40.0169 3.62512 39.9188C3.72326 39.8206 3.7784 39.6875 3.7784 39.5487C3.7784 39.4099 3.72326 39.2768 3.62512 39.1787C3.52698 39.0805 3.39387 39.0254 3.25508 39.0254ZM42.2424 39.0254H41.4574C41.3186 39.0254 41.1855 39.0805 41.0873 39.1787C40.9892 39.2768 40.9341 39.4099 40.9341 39.5487C40.9341 39.6875 40.9892 39.8206 41.0873 39.9188C41.1855 40.0169 41.3186 40.072 41.4574 40.072H42.2424C42.3812 40.072 42.5143 40.0169 42.6124 39.9188C42.7106 39.8206 42.7657 39.6875 42.7657 39.5487C42.7657 39.4099 42.7106 39.2768 42.6124 39.1787C42.5143 39.0805 42.3812 39.0254 42.2424 39.0254Z" fill="#2D4356"/>
<path id="Vector_14" d="M43.8119 40.0722C44.1009 40.0722 44.3352 39.8379 44.3352 39.5488C44.3352 39.2598 44.1009 39.0255 43.8119 39.0255C43.5229 39.0255 43.2886 39.2598 43.2886 39.5488C43.2886 39.8379 43.5229 40.0722 43.8119 40.0722Z" fill="#2D4356"/>
<path id="Vector_15" d="M39.814 39.0254H32.0104L29.9095 33.8013L29.8058 33.7165C29.5493 33.5006 29.2514 33.3395 28.9303 33.2431C28.8619 33.2217 28.7947 33.1966 28.7291 33.1679C28.2937 32.9294 27.9075 32.6104 27.5911 32.2279L26.3569 30.6785L26.3316 30.6491C25.9244 30.1666 25.611 29.6121 25.4076 29.0144L23.9549 26.237C23.9392 26.2077 23.9295 26.1755 23.9266 26.1423C23.9236 26.1092 23.9274 26.0758 23.9377 26.0441C23.9494 26.0075 23.9684 25.9736 23.9935 25.9444C24.0186 25.9152 24.0493 25.8914 24.0837 25.8742C24.1513 25.8381 24.2302 25.8293 24.3041 25.8497C24.378 25.87 24.4412 25.918 24.4808 25.9836L26.0548 28.9401C26.0869 29.0011 26.1307 29.0552 26.1838 29.0993C26.2368 29.1434 26.298 29.1765 26.3639 29.1968C26.4298 29.2172 26.4991 29.2242 26.5677 29.2177C26.6364 29.2112 26.7031 29.1911 26.764 29.1587C26.8248 29.1264 26.8787 29.0823 26.9225 29.029C26.9663 28.9757 26.9991 28.9143 27.019 28.8483C27.039 28.7823 27.0457 28.713 27.0388 28.6444C27.0319 28.5758 27.0115 28.5092 26.9788 28.4485L24.3836 23.6454C24.3677 23.616 24.3579 23.5836 24.3549 23.5502C24.3519 23.5169 24.3557 23.4833 24.3661 23.4515C24.3778 23.415 24.3968 23.3813 24.4218 23.3523C24.4469 23.3233 24.4775 23.2996 24.5118 23.2826C24.5792 23.2451 24.6585 23.2355 24.7329 23.2559C24.8072 23.2763 24.8705 23.3251 24.9093 23.3917L27.4716 28.2045C27.504 28.2656 27.5483 28.3196 27.6017 28.3635C27.6552 28.4074 27.7169 28.4402 27.7832 28.46C27.8494 28.4798 27.919 28.4863 27.9878 28.479C28.0566 28.4718 28.1233 28.4509 28.1839 28.4177C28.205 28.4111 28.2256 28.4032 28.2457 28.394C28.3064 28.3617 28.3601 28.3178 28.4038 28.2648C28.4474 28.2117 28.4802 28.1506 28.5003 28.0849C28.5203 28.0192 28.5273 27.9501 28.5206 27.8817C28.514 27.8133 28.4939 27.7469 28.4616 27.6863L25.3761 21.8913C25.3603 21.8619 25.3506 21.8295 25.3476 21.7962C25.3446 21.7628 25.3484 21.7293 25.3588 21.6974C25.3706 21.6609 25.3896 21.6271 25.4147 21.598C25.4398 21.5689 25.4705 21.5451 25.5049 21.528C25.5722 21.4908 25.6515 21.4814 25.7256 21.5019C25.7998 21.5223 25.863 21.571 25.9018 21.6374L28.9871 27.4331C29.0524 27.5556 29.1636 27.6471 29.2964 27.6877C29.4291 27.7282 29.5725 27.7144 29.695 27.6492C29.7063 27.6432 29.7154 27.6351 29.726 27.6285C29.741 27.6222 29.7563 27.6179 29.7709 27.6101C29.8316 27.5778 29.8853 27.5339 29.929 27.4809C29.9727 27.4278 30.0055 27.3667 30.0255 27.301C30.0456 27.2352 30.0525 27.1662 30.0459 27.0978C30.0392 27.0294 30.0192 26.963 29.9869 26.9023L27.6874 22.5835C27.6715 22.5541 27.6618 22.5219 27.6588 22.4886C27.6558 22.4554 27.6596 22.4219 27.6699 22.3901C27.6817 22.3535 27.7007 22.3197 27.7258 22.2905C27.7508 22.2614 27.7815 22.2376 27.8159 22.2204C27.8834 22.1834 27.9626 22.1742 28.0368 22.1947C28.1109 22.2153 28.1741 22.2639 28.213 22.3303L30.5882 26.7917C30.6394 26.942 30.7426 27.0691 30.8792 27.1501C31.0157 27.2311 31.1767 27.2606 31.3332 27.2334C31.4896 27.2062 31.6312 27.124 31.7324 27.0017C31.8336 26.8793 31.8878 26.7249 31.8852 26.5661L31.8912 26.525L31.8574 23.8153C31.8789 23.7458 31.925 23.6866 31.987 23.6487C32.0485 23.6072 32.1178 23.5786 32.1907 23.5646C32.2636 23.5506 32.3385 23.5516 32.4111 23.5675C32.9459 23.7103 33.0046 24.2857 32.9302 25.4419C32.9158 25.6639 32.9024 25.8734 32.9049 26.0615C32.9235 26.6327 33.0297 27.1978 33.2197 27.7368C33.5833 28.8516 33.7495 30.5996 32.9809 30.9948C32.9738 30.9985 32.9681 31.0036 32.9613 31.0075C32.8788 31.0259 32.8021 31.0641 32.7378 31.1188C32.6734 31.1736 32.6234 31.2432 32.5921 31.3217C32.5608 31.4002 32.5491 31.4851 32.558 31.5691C32.567 31.6531 32.5963 31.7337 32.6435 31.8038L36.0487 36.955C36.1254 37.0705 36.2447 37.1508 36.3805 37.1784C36.5163 37.206 36.6575 37.1786 36.7731 37.1022C36.8887 37.0258 36.9693 36.9066 36.9972 36.7709C37.0251 36.6352 36.998 36.4939 36.9219 36.3781L33.8145 31.6774C34.902 30.7243 34.6045 28.6076 34.2147 27.4124C34.0581 26.9735 33.9694 26.5133 33.9515 26.0477C33.9495 25.9003 33.9617 25.7102 33.9746 25.5093C34.0363 24.5504 34.1397 22.9456 32.6804 22.5562C32.4626 22.5012 32.2357 22.493 32.0146 22.5322C31.7934 22.5715 31.5831 22.6572 31.3976 22.7838C31.2382 22.8877 31.1034 23.0251 31.0025 23.1864C30.9017 23.3478 30.8372 23.5292 30.8138 23.718L30.8099 23.7512L30.8256 25.0103L29.1369 21.8385C29.039 21.6556 28.8998 21.498 28.7304 21.3784C28.5609 21.2588 28.3659 21.1804 28.1608 21.1494C27.9557 21.1184 27.7462 21.1358 27.5489 21.2C27.3517 21.2643 27.1722 21.3737 27.0247 21.5196L26.8256 21.1455C26.6567 20.8372 26.3739 20.6073 26.0377 20.5048C25.7014 20.4023 25.3384 20.4355 25.0263 20.5972C24.8684 20.6773 24.7281 20.7882 24.6137 20.9234C24.4993 21.0585 24.4131 21.2152 24.3602 21.3842C24.2737 21.6626 24.2845 21.9622 24.3908 22.2336C24.2668 22.2559 24.1465 22.2956 24.0336 22.3515C23.8756 22.4315 23.7352 22.5424 23.6208 22.6776C23.5064 22.8127 23.4202 22.9695 23.3673 23.1385C23.3152 23.3027 23.2965 23.4757 23.3124 23.6472C23.3282 23.8188 23.3783 23.9854 23.4597 24.1373L23.8398 24.8509C23.7588 24.8744 23.6802 24.9055 23.605 24.9437C23.4469 25.0239 23.3066 25.1349 23.1921 25.2703C23.0777 25.4056 22.9915 25.5625 22.9387 25.7317C22.8867 25.8956 22.8681 26.0683 22.884 26.2396C22.8999 26.4109 22.9499 26.5772 23.031 26.7289C23.031 26.7289 24.4024 29.3052 24.4041 29.311C24.6511 30.0567 25.0402 30.7474 25.5498 31.3451L26.7727 32.8805C27.1913 33.3905 27.7077 33.8115 28.2916 34.1187C28.3911 34.163 28.4929 34.2018 28.5967 34.2349C28.7558 34.2804 28.9062 34.3525 29.0414 34.448C29.0414 34.448 30.3847 37.7882 30.8823 39.0254H23.4796L25.3756 37.2584C25.7876 36.845 26.0189 36.2852 26.0189 35.7016C26.019 35.118 25.7877 34.5582 25.3758 34.1448C24.9705 33.7583 24.4341 33.5391 23.8742 33.5312C23.3142 33.5233 22.7719 33.7272 22.3558 34.1021C21.9396 33.7273 21.3971 33.5236 20.8371 33.5316C20.277 33.5396 19.7406 33.7588 19.3352 34.1453C19.1308 34.3506 18.9687 34.5941 18.8584 34.8621C18.7482 35.13 18.6918 35.4171 18.6925 35.7068C18.6932 35.9966 18.751 36.2834 18.8626 36.5508C18.9742 36.8182 19.1374 37.061 19.3429 37.2652L21.2319 39.0254H13.829L15.67 34.448C15.8052 34.3525 15.9555 34.2804 16.1147 34.2349C16.2186 34.2017 16.3206 34.1628 16.4203 34.1184C17.0042 33.8111 17.5206 33.39 17.939 32.88L19.1616 31.3451C19.6725 30.7461 20.0622 30.0534 20.3088 29.3057L21.6802 26.7291C21.7614 26.5775 21.8115 26.4111 21.8274 26.2398C21.8433 26.0684 21.8247 25.8957 21.7727 25.7317C21.7199 25.5625 21.6337 25.4056 21.5192 25.2703C21.4048 25.1349 21.2644 25.0239 21.1063 24.9437C21.0311 24.9055 20.9525 24.8745 20.8716 24.8511L21.2518 24.137C21.3331 23.9852 21.3832 23.8186 21.399 23.6471C21.4149 23.4756 21.3962 23.3027 21.3441 23.1385C21.2912 22.9695 21.205 22.8128 21.0906 22.6776C20.9762 22.5424 20.8359 22.4316 20.6779 22.3515C20.565 22.2956 20.4447 22.2559 20.3207 22.2335C20.427 21.9621 20.4377 21.6626 20.3512 21.3842C20.2983 21.2153 20.2122 21.0586 20.0978 20.9235C19.9834 20.7884 19.8432 20.6776 19.6853 20.5975C19.3732 20.4356 19.0101 20.4024 18.6737 20.5048C18.3374 20.6073 18.0545 20.8374 17.8856 21.1458L17.6867 21.5195C17.5391 21.3737 17.3596 21.2643 17.1624 21.2001C16.9651 21.1358 16.7556 21.1185 16.5505 21.1495C16.3454 21.1805 16.1503 21.259 15.9809 21.3786C15.8114 21.4983 15.6722 21.6558 15.5744 21.8387L13.8857 25.0093L13.9015 23.7512L13.8976 23.718C13.8741 23.5292 13.8097 23.3477 13.7089 23.1864C13.608 23.0251 13.4732 22.8877 13.3137 22.7838C13.1281 22.6572 12.9178 22.5715 12.6965 22.5323C12.4753 22.493 12.2483 22.5012 12.0305 22.5562C10.5717 22.9456 10.675 24.5504 10.7367 25.5093C10.7496 25.7102 10.7619 25.9003 10.7599 26.0477C10.742 26.5133 10.6532 26.9735 10.4967 27.4124C10.1069 28.6076 9.80933 30.7243 10.8969 31.6774L7.7895 36.3781C7.75144 36.4355 7.72506 36.4997 7.71187 36.5673C7.69869 36.6348 7.69895 36.7043 7.71265 36.7717C7.72635 36.8391 7.75321 36.9032 7.79171 36.9602C7.8302 37.0173 7.87957 37.0662 7.93698 37.1041C7.99439 37.142 8.05872 37.1683 8.12628 37.1813C8.19385 37.1944 8.26332 37.1939 8.33073 37.1801C8.39813 37.1662 8.46214 37.1392 8.51909 37.1006C8.57605 37.062 8.62483 37.0125 8.66263 36.955L12.0679 31.8038C12.1151 31.7337 12.1444 31.6531 12.1533 31.5691C12.1623 31.4851 12.1506 31.4001 12.1192 31.3217C12.0879 31.2432 12.0379 31.1736 11.9736 31.1188C11.9092 31.0641 11.8325 31.0259 11.75 31.0075C11.7432 31.0036 11.7375 30.9985 11.7305 30.9948C10.9619 30.5996 11.1281 28.8516 11.4917 27.7368C11.6817 27.1978 11.7879 26.6327 11.8065 26.0615C11.8089 25.8734 11.7955 25.6639 11.7812 25.4419C11.7067 24.2857 11.7655 23.7103 12.2998 23.5675C12.3724 23.5518 12.4474 23.5509 12.5204 23.5649C12.5933 23.5788 12.6627 23.6073 12.7244 23.6487C12.7864 23.6866 12.8325 23.7459 12.8539 23.8153L12.8202 26.525L12.8262 26.5661C12.8236 26.7249 12.8778 26.8794 12.979 27.0017C13.0802 27.1241 13.2218 27.2062 13.3782 27.2334C13.5346 27.2607 13.6956 27.2311 13.8322 27.1501C13.9688 27.0691 14.072 26.9421 14.1231 26.7917L16.4982 22.3306C16.537 22.2641 16.6002 22.2153 16.6744 22.1947C16.7486 22.1742 16.8279 22.1834 16.8953 22.2205C16.9298 22.2376 16.9605 22.2614 16.9856 22.2905C17.0107 22.3197 17.0297 22.3535 17.0415 22.3901C17.0518 22.4219 17.0556 22.4555 17.0526 22.4887C17.0496 22.522 17.0398 22.5544 17.024 22.5838L14.7245 26.9024C14.6922 26.963 14.6721 27.0294 14.6655 27.0978C14.6589 27.1662 14.6658 27.2353 14.6858 27.301C14.7059 27.3667 14.7387 27.4278 14.7824 27.4809C14.826 27.5339 14.8798 27.5779 14.9404 27.6101C14.955 27.6179 14.9704 27.6223 14.9854 27.6285C14.996 27.6352 15.0051 27.6433 15.0163 27.6492C15.1389 27.7144 15.2823 27.7282 15.415 27.6877C15.5478 27.6472 15.659 27.5556 15.7243 27.4331L18.8095 21.6377C18.8481 21.571 18.9114 21.5222 18.9857 21.5017C19.06 21.4813 19.1394 21.4908 19.2067 21.5283C19.2411 21.5453 19.2717 21.5691 19.2968 21.5981C19.3218 21.6272 19.3408 21.6609 19.3526 21.6974C19.3629 21.7292 19.3667 21.7627 19.3638 21.796C19.3609 21.8293 19.3512 21.8616 19.3355 21.8911L16.2497 27.6863C16.2174 27.7469 16.1974 27.8134 16.1907 27.8817C16.1841 27.9501 16.191 28.0192 16.2111 28.0849C16.2311 28.1506 16.2639 28.2118 16.3076 28.2648C16.3513 28.3178 16.405 28.3618 16.4657 28.394C16.4857 28.4047 16.5068 28.4098 16.5318 28.4206C16.6544 28.4858 16.7978 28.4997 16.9306 28.4591C17.0633 28.4186 17.1745 28.327 17.2398 28.2045L19.8021 23.3917C19.841 23.3252 19.9043 23.2765 19.9786 23.2561C20.053 23.2357 20.1323 23.2452 20.1997 23.2826C20.234 23.2996 20.2646 23.3233 20.2896 23.3523C20.3146 23.3813 20.3336 23.415 20.3453 23.4515C20.3557 23.4833 20.3595 23.5168 20.3565 23.5501C20.3535 23.5834 20.3438 23.6157 20.328 23.6452L17.7326 28.4485C17.6998 28.5092 17.6795 28.5757 17.6725 28.6443C17.6656 28.713 17.6724 28.7823 17.6923 28.8483C17.7123 28.9143 17.7451 28.9757 17.7889 29.029C17.8327 29.0822 17.8866 29.1263 17.9474 29.1587C18.0083 29.1911 18.075 29.2112 18.1436 29.2177C18.2123 29.2242 18.2816 29.2171 18.3475 29.1968C18.4134 29.1765 18.4746 29.1433 18.5276 29.0993C18.5807 29.0552 18.6245 29.0011 18.6565 28.9401L20.2305 25.9838C20.27 25.9182 20.3332 25.8702 20.4071 25.8498C20.481 25.8294 20.5599 25.8381 20.6276 25.8742C20.662 25.8913 20.6927 25.9152 20.7178 25.9444C20.7429 25.9736 20.7619 26.0075 20.7737 26.0441C20.784 26.0758 20.7878 26.1093 20.7848 26.1425C20.7818 26.1757 20.7721 26.2079 20.7563 26.2373L19.3587 28.8629L19.3087 28.998C19.1057 29.6019 18.7905 30.1621 18.3798 30.6491L17.1207 32.2274C16.8043 32.61 16.4182 32.929 15.9828 33.1677C15.917 33.1964 15.8497 33.2216 15.7811 33.2431C15.46 33.3395 15.162 33.5006 14.9055 33.7165L14.8019 33.8013L12.701 39.0254H4.89741C4.82297 39.0157 4.7473 39.0219 4.67546 39.0438C4.60363 39.0656 4.53729 39.1025 4.48086 39.1521C4.42444 39.2016 4.37923 39.2626 4.34826 39.331C4.31729 39.3994 4.30127 39.4736 4.30127 39.5487C4.30127 39.6238 4.31729 39.698 4.34826 39.7664C4.37923 39.8348 4.42444 39.8958 4.48086 39.9453C4.53729 39.9949 4.60363 40.0318 4.67546 40.0536C4.7473 40.0755 4.82297 40.0817 4.89741 40.072H39.814C39.8884 40.0817 39.9641 40.0755 40.0359 40.0536C40.1077 40.0318 40.1741 39.9949 40.2305 39.9453C40.2869 39.8958 40.3321 39.8348 40.3631 39.7664C40.3941 39.698 40.4101 39.6238 40.4101 39.5487C40.4101 39.4736 40.3941 39.3994 40.3631 39.331C40.3321 39.2626 40.2869 39.2016 40.2305 39.1521C40.1741 39.1025 40.1077 39.0656 40.0359 39.0438C39.9641 39.0219 39.8884 39.0157 39.814 39.0254ZM19.7391 35.7023C19.7369 35.5532 19.7645 35.4052 19.8203 35.2668C19.876 35.1285 19.9588 35.0027 20.0637 34.8967C20.2805 34.69 20.5685 34.5746 20.8681 34.5745C21.1677 34.5744 21.4558 34.6896 21.6727 34.8962L21.9914 35.2053C22.0892 35.3001 22.2199 35.353 22.356 35.3529C22.4921 35.3529 22.6228 35.2999 22.7205 35.2051C22.7206 35.2051 22.9966 34.9368 23.0321 34.9028L23.039 34.8962C23.2556 34.6896 23.5435 34.5743 23.8429 34.5743C24.1422 34.5742 24.4301 34.6894 24.6469 34.8959C24.8543 35.1109 24.9708 35.3976 24.9723 35.6963C24.9737 35.995 24.86 36.2827 24.6547 36.4997L22.3557 38.6422L20.064 36.5069C19.9591 36.4011 19.8764 36.2755 19.8206 36.1373C19.7648 35.9992 19.7371 35.8513 19.7391 35.7023ZM21.8816 4.22465C22.0368 4.22465 22.1886 4.17861 22.3177 4.09236C22.4468 4.0061 22.5474 3.88351 22.6068 3.74007C22.6662 3.59664 22.6817 3.4388 22.6515 3.28653C22.6212 3.13426 22.5464 2.99439 22.4366 2.88461C22.3268 2.77483 22.187 2.70007 22.0347 2.66978C21.8824 2.63949 21.7246 2.65503 21.5812 2.71445C21.4377 2.77386 21.3151 2.87447 21.2289 3.00356C21.1426 3.13265 21.0966 3.28442 21.0966 3.43967C21.0968 3.64779 21.1796 3.84731 21.3268 3.99447C21.4739 4.14163 21.6734 4.22441 21.8816 4.22465ZM21.8816 3.04718C21.9592 3.04718 22.0351 3.0702 22.0996 3.11333C22.1642 3.15646 22.2145 3.21776 22.2442 3.28947C22.2739 3.36119 22.2817 3.44011 22.2665 3.51624C22.2514 3.59238 22.214 3.66231 22.1591 3.7172C22.1042 3.7721 22.0343 3.80948 21.9581 3.82462C21.882 3.83976 21.8031 3.83199 21.7314 3.80229C21.6596 3.77258 21.5983 3.72227 21.5552 3.65773C21.5121 3.59318 21.4891 3.5173 21.4891 3.43967C21.4892 3.33561 21.5306 3.23584 21.6041 3.16225C21.6777 3.08867 21.7775 3.04729 21.8816 3.04718ZM30.3367 2.52386C30.2332 2.52386 30.132 2.55456 30.0459 2.61206C29.9599 2.66956 29.8928 2.75129 29.8532 2.84692C29.8136 2.94254 29.8032 3.04776 29.8234 3.14928C29.8436 3.25079 29.8935 3.34404 29.9667 3.41723C30.0398 3.49041 30.1331 3.54025 30.2346 3.56045C30.3361 3.58064 30.4413 3.57028 30.537 3.53067C30.6326 3.49106 30.7143 3.42398 30.7718 3.33792C30.8293 3.25186 30.86 3.15069 30.86 3.04718C30.8599 2.90844 30.8047 2.77542 30.7066 2.67732C30.6084 2.57921 30.4754 2.52402 30.3367 2.52386ZM30.3367 3.30884C30.2849 3.30884 30.2344 3.2935 30.1913 3.26475C30.1483 3.23599 30.1148 3.19513 30.0949 3.14732C30.0751 3.0995 30.07 3.04689 30.0801 2.99614C30.0902 2.94538 30.1151 2.89876 30.1517 2.86216C30.1883 2.82557 30.2349 2.80065 30.2856 2.79055C30.3364 2.78046 30.389 2.78564 30.4368 2.80544C30.4846 2.82525 30.5255 2.85878 30.5543 2.90181C30.583 2.94484 30.5984 2.99543 30.5984 3.04718C30.5983 3.11656 30.5707 3.18307 30.5216 3.23213C30.4726 3.28118 30.4061 3.30877 30.3367 3.30884ZM4.90422 1.8623C4.80072 1.8623 4.69954 1.893 4.61348 1.9505C4.52742 2.008 4.46035 2.08973 4.42074 2.18536C4.38113 2.28098 4.37077 2.3862 4.39096 2.48772C4.41115 2.58923 4.46099 2.68248 4.53418 2.75567C4.60737 2.82885 4.70061 2.8787 4.80213 2.89889C4.90364 2.91908 5.00886 2.90872 5.10449 2.86911C5.20011 2.8295 5.28184 2.76242 5.33935 2.67636C5.39685 2.59031 5.42754 2.48913 5.42754 2.38562C5.42738 2.24688 5.3722 2.11386 5.27409 2.01576C5.17598 1.91765 5.04297 1.86246 4.90422 1.8623ZM4.90422 2.64728C4.85247 2.64728 4.80188 2.63194 4.75885 2.60319C4.71582 2.57443 4.68229 2.53357 4.66248 2.48576C4.64268 2.43794 4.63749 2.38533 4.64759 2.33458C4.65769 2.28382 4.68261 2.2372 4.7192 2.2006C4.7558 2.16401 4.80242 2.13909 4.85318 2.12899C4.90393 2.1189 4.95654 2.12408 5.00436 2.14388C5.05217 2.16369 5.09303 2.19722 5.12178 2.24025C5.15054 2.28328 5.16588 2.33387 5.16588 2.38562C5.16581 2.455 5.13822 2.52151 5.08917 2.57057C5.04011 2.61962 4.9736 2.64721 4.90422 2.64728ZM42.7651 8.72886C42.6616 8.72886 42.5605 8.75955 42.4744 8.81705C42.3883 8.87456 42.3213 8.95629 42.2817 9.05191C42.2421 9.14754 42.2317 9.25276 42.2519 9.35427C42.2721 9.45579 42.3219 9.54903 42.3951 9.62222C42.4683 9.69541 42.5615 9.74525 42.663 9.76544C42.7646 9.78563 42.8698 9.77527 42.9654 9.73566C43.061 9.69605 43.1428 9.62898 43.2003 9.54292C43.2578 9.45686 43.2885 9.35568 43.2885 9.25218C43.2883 9.11343 43.2331 8.98042 43.135 8.88231C43.0369 8.7842 42.9039 8.72902 42.7651 8.72886ZM42.7651 9.51384C42.7134 9.51384 42.6628 9.49849 42.6198 9.46974C42.5767 9.44099 42.5432 9.40012 42.5234 9.35231C42.5036 9.3045 42.4984 9.25189 42.5085 9.20113C42.5186 9.15037 42.5435 9.10375 42.5801 9.06716C42.6167 9.03056 42.6633 9.00564 42.7141 8.99555C42.7649 8.98545 42.8175 8.99063 42.8653 9.01044C42.9131 9.03024 42.954 9.06378 42.9827 9.10681C43.0115 9.14984 43.0268 9.20043 43.0268 9.25218C43.0267 9.32155 42.9991 9.38807 42.9501 9.43712C42.901 9.48618 42.8345 9.51377 42.7651 9.51384ZM9.79603 8.67287C9.79603 8.56936 9.76533 8.46818 9.70783 8.38212C9.65033 8.29607 9.5686 8.22899 9.47297 8.18938C9.37735 8.14977 9.27213 8.13941 9.17061 8.1596C9.0691 8.17979 8.97585 8.22964 8.90266 8.30282C8.82948 8.37601 8.77963 8.46926 8.75944 8.57077C8.73925 8.67229 8.74961 8.77751 8.78922 8.87313C8.82883 8.96876 8.89591 9.05049 8.98197 9.10799C9.06803 9.16549 9.1692 9.19619 9.27271 9.19619C9.41145 9.19603 9.54447 9.14084 9.64257 9.04273C9.74068 8.94463 9.79587 8.81161 9.79603 8.67287ZM9.01105 8.67287C9.01105 8.62111 9.02639 8.57053 9.05514 8.5275C9.0839 8.48447 9.12476 8.45093 9.17257 8.43112C9.22039 8.41132 9.273 8.40614 9.32375 8.41623C9.37451 8.42633 9.42113 8.45125 9.45773 8.48784C9.49432 8.52444 9.51924 8.57106 9.52934 8.62182C9.53943 8.67258 9.53425 8.72519 9.51445 8.773C9.49464 8.82081 9.46111 8.86168 9.41808 8.89043C9.37505 8.91918 9.32446 8.93453 9.27271 8.93453C9.20333 8.93446 9.13682 8.90687 9.08776 8.85781C9.03871 8.80875 9.01112 8.74224 9.01105 8.67287Z" fill="#2D4356"/>
<path id="Vector_16" d="M2.49905 10.8602L2.88788 10.3487L2.64218 10.2095L2.39256 10.7825H2.38418L2.13064 10.2134L1.88049 10.3568L2.26565 10.8563V10.8644L1.66357 10.7864V11.0648L2.26958 10.9871V10.9955L1.88049 11.4947L2.11389 11.6423L2.38026 11.0648H2.38837L2.63407 11.6381L2.89207 11.4908L2.49905 10.9994V10.9913L3.11709 11.0648V10.7864L2.49905 10.8683V10.8602Z" fill="#0BCEB2"/>
<path id="Vector_17" d="M39.9223 1.64066L39.6983 1.92822L39.8326 2.01326L39.9861 1.68069H39.9906L40.1321 2.01091L40.2808 1.92613L40.0544 1.64301V1.6383L40.4103 1.68069V1.52056L40.0544 1.56766V1.56295L40.2784 1.26832L40.1369 1.18799L39.9932 1.5182H39.9882L39.8422 1.19034L39.6983 1.27303L39.9199 1.56059V1.5653L39.5732 1.52056V1.68069L39.9223 1.63595V1.64066Z" fill="#0BCEB2"/>
<path id="Vector_18" d="M36.675 11.0622V10.7893L36.0688 10.8693V10.8615L36.4505 10.3596L36.2095 10.223L35.9646 10.7851H35.9563L35.7077 10.2269L35.4622 10.3675L35.8401 10.8575V10.8654L35.2495 10.7893V11.0622L35.844 10.986V10.9941L35.4622 11.4837L35.6912 11.6284L35.9526 11.0622H35.9602L36.2012 11.6245L36.4545 11.4798L36.0688 10.9981V10.9899L36.675 11.0622Z" fill="#0BCEB2"/>
<path id="Vector_19" d="M13.6823 2.59179L14.0115 2.15901L13.8035 2.04126L13.5923 2.52585H13.5853L13.3707 2.0444L13.159 2.16581L13.4848 2.58839V2.59545L12.9756 2.52952V2.76501L13.4882 2.69933V2.70614L13.159 3.12872L13.3566 3.25353L13.5819 2.76501H13.5887L13.7964 3.24987L14.0149 3.12532L13.6823 2.70954V2.70274L14.2051 2.76501V2.52952L13.6823 2.59886V2.59179Z" fill="#0BCEB2"/>
</g>
<defs>
<clipPath id="clip0_584_605">
<rect width="43.9588" height="43.9588" fill="white" transform="translate(0.376465 0.4823)"/>
</clipPath>
</defs>
</svg>
